<svg width="676" height="570" viewBox="0 0 676 570" fill="none" xmlns="http://www.w3.org/2000/svg">
    <g opacity="0.9">
        <path d="M591.842 485L71.8425 470.1C47.6425 469.4 27.7425 450.9 25.3425 426.8L0.24249 178.8C-2.55751 150.7 19.2425 126.2 47.4425 125.8L626.242 117.8C655.443 117.4 678.342 142.9 674.742 171.9L641.042 442.8C637.943 467.5 616.642 485.7 591.842 485Z" fill="#EAF9F3"/>
        <mask id="mask0_301_4974" style="mask-type:alpha" maskUnits="userSpaceOnUse" x="0" y="117" width="676" height="369">
            <path d="M591.843 485L71.8426 470.1C47.6426 469.4 27.7426 450.9 25.3426 426.8L0.242612 178.8C-2.55739 150.7 19.2426 126.2 47.4426 125.8L626.243 117.8C655.443 117.4 678.343 142.9 674.743 171.9L641.043 442.8C637.943 467.5 616.643 485.7 591.843 485Z" fill="#EAF9F3"/>
        </mask>
        <g mask="url(#mask0_301_4974)">
            <path d="M167.443 530H-248.057C-256.357 530 -263.057 523.3 -263.057 515V279.4C-263.057 271.1 -256.357 264.4 -248.057 264.4H167.443C175.743 264.4 182.443 271.1 182.443 279.4V515C182.443 523.3 175.743 530 167.443 530Z" stroke="#B8D8C7" stroke-width="1.8" stroke-miterlimit="10" stroke-linecap="round" stroke-linejoin="round"/>
            <path d="M716.543 514.2H297.443C289.143 514.2 282.443 507.5 282.443 499.2V154.9C282.443 146.6 289.143 139.9 297.443 139.9H716.543C724.843 139.9 731.543 146.6 731.543 154.9V499.2C731.543 507.5 724.843 514.2 716.543 514.2Z" stroke="#B8D8C7" stroke-width="1.8" stroke-miterlimit="10" stroke-linecap="round" stroke-linejoin="round"/>
            <path d="M67.8425 194H-22.0575V185.1H67.8425C68.8425 185.1 69.6425 185.9 69.6425 186.9V192.1C69.6425 193.2 68.8425 194 67.8425 194Z" stroke="#B8D8C7" stroke-width="1.8" stroke-miterlimit="10" stroke-linecap="round" stroke-linejoin="round"/>
            <path d="M51.5425 185.1H31.2425C29.0425 185.1 27.2425 183.5 26.9425 181.3L25.3425 166.9C25.0425 164.4 27.0425 162.1 29.6425 162.1H53.1425C55.7425 162.1 57.6425 164.3 57.4425 166.9L55.8425 181.3C55.5425 183.5 53.7425 185.1 51.5425 185.1Z" stroke="#B8D8C7" stroke-width="1.8" stroke-miterlimit="10" stroke-linecap="round" stroke-linejoin="round"/>
            <path d="M38.9425 162.2C38.9425 162.2 30.9425 161.4 29.3425 150.6C29.3425 150.6 36.5425 152.7 38.8425 157.8C38.8425 157.8 39.8425 146.4 45.2425 145.3C45.2425 145.3 47.6425 153.8 43.8425 158C43.8425 158 46.7425 153.2 54.1425 153.3C54.1425 153.3 52.2425 160.1 44.9425 162.1" fill="#B8D8C7"/>
            <path d="M587.243 244.8H566.943C564.743 244.8 562.943 243.2 562.643 241L561.043 226.6C560.743 224.1 562.743 221.8 565.343 221.8H588.843C591.443 221.8 593.343 224 593.143 226.6L591.543 241C591.243 243.1 589.443 244.8 587.243 244.8Z" stroke="#B8D8C7" stroke-width="1.8" stroke-miterlimit="10" stroke-linecap="round" stroke-linejoin="round"/>
            <path d="M574.743 221.8C574.743 221.8 566.743 221 565.143 210.2C565.143 210.2 572.343 212.3 574.643 217.4C574.643 217.4 575.643 206 581.043 204.9C581.043 204.9 583.443 213.4 579.643 217.6C579.643 217.6 582.543 212.8 589.943 212.9C589.943 212.9 588.043 219.7 580.743 221.7" fill="#B8D8C7"/>
            <path d="M164.243 314.1H74.0425C71.7425 314.1 69.8425 312.2 69.8425 309.9V282.5C69.8425 280.2 71.7425 278.3 74.0425 278.3H164.243C166.543 278.3 168.443 280.2 168.443 282.5V309.9C168.543 312.2 166.643 314.1 164.243 314.1Z" stroke="#B8D8C7" stroke-width="1.8" stroke-miterlimit="10" stroke-linecap="round" stroke-linejoin="round"/>
            <path d="M129.543 288H108.743C107.943 288 107.243 287.3 107.243 286.5C107.243 285.7 107.943 285 108.743 285H129.543C130.343 285 131.043 285.7 131.043 286.5C131.043 287.3 130.343 288 129.543 288Z" fill="#B8D8C7"/>
            <path d="M164.243 359.9H74.0425C71.7425 359.9 69.8425 358 69.8425 355.7V328.3C69.8425 326 71.7425 324.1 74.0425 324.1H164.243C166.543 324.1 168.443 326 168.443 328.3V355.7C168.543 358 166.643 359.9 164.243 359.9Z" stroke="#B8D8C7" stroke-width="1.8" stroke-miterlimit="10" stroke-linecap="round" stroke-linejoin="round"/>
            <path d="M129.543 333.8H108.743C107.943 333.8 107.243 333.1 107.243 332.3C107.243 331.5 107.943 330.8 108.743 330.8H129.543C130.343 330.8 131.043 331.5 131.043 332.3C131.043 333.1 130.343 333.8 129.543 333.8Z" fill="#B8D8C7"/>
            <path d="M627.443 392.3H537.242C534.942 392.3 533.042 390.4 533.042 388.1V360.7C533.042 358.4 534.942 356.5 537.242 356.5H627.443C629.743 356.5 631.642 358.4 631.642 360.7V388.1C631.742 390.4 629.843 392.3 627.443 392.3Z" stroke="#B8D8C7" stroke-width="1.8" stroke-miterlimit="10" stroke-linecap="round" stroke-linejoin="round"/>
            <path d="M592.742 366.1H571.943C571.143 366.1 570.443 365.4 570.443 364.6C570.443 363.8 571.143 363.1 571.943 363.1H592.742C593.542 363.1 594.242 363.8 594.242 364.6C594.242 365.5 593.542 366.1 592.742 366.1Z" fill="#B8D8C7"/>
            <path d="M511.642 392.3H421.443C419.143 392.3 417.242 390.4 417.242 388.1V360.7C417.242 358.4 419.143 356.5 421.443 356.5H511.642C513.942 356.5 515.842 358.4 515.842 360.7V388.1C515.842 390.4 513.942 392.3 511.642 392.3Z" stroke="#B8D8C7" stroke-width="1.8" stroke-miterlimit="10" stroke-linecap="round" stroke-linejoin="round"/>
            <path d="M476.943 366.1H456.142C455.342 366.1 454.642 365.4 454.642 364.6C454.642 363.8 455.342 363.1 456.142 363.1H476.943C477.743 363.1 478.443 363.8 478.443 364.6C478.443 365.5 477.743 366.1 476.943 366.1Z" fill="#B8D8C7"/>
            <path d="M395.043 392.3H304.842C302.542 392.3 300.643 390.4 300.643 388.1V360.7C300.643 358.4 302.542 356.5 304.842 356.5H395.043C397.343 356.5 399.243 358.4 399.243 360.7V388.1C399.343 390.4 397.443 392.3 395.043 392.3Z" stroke="#B8D8C7" stroke-width="1.8" stroke-miterlimit="10" stroke-linecap="round" stroke-linejoin="round"/>
            <path d="M360.342 366.1H339.542C338.742 366.1 338.042 365.4 338.042 364.6C338.042 363.8 338.742 363.1 339.542 363.1H360.342C361.142 363.1 361.842 363.8 361.842 364.6C361.842 365.5 361.142 366.1 360.342 366.1Z" fill="#B8D8C7"/>
            <path d="M49.2425 314.1H-40.9575C-43.2575 314.1 -45.1575 312.2 -45.1575 309.9V282.5C-45.1575 280.2 -43.2575 278.3 -40.9575 278.3H49.2425C51.5425 278.3 53.4425 280.2 53.4425 282.5V309.9C53.5425 312.2 51.6425 314.1 49.2425 314.1Z" stroke="#B8D8C7" stroke-width="1.8" stroke-miterlimit="10" stroke-linecap="round" stroke-linejoin="round"/>
            <path d="M14.5425 288H-6.25751C-7.05751 288 -7.75751 287.3 -7.75751 286.5C-7.75751 285.7 -7.05751 285 -6.25751 285H14.5425C15.3425 285 16.0425 285.7 16.0425 286.5C16.0425 287.3 15.4425 288 14.5425 288Z" fill="#B8D8C7"/>
            <path d="M49.2425 359.9H-40.9575C-43.2575 359.9 -45.1575 358 -45.1575 355.7V328.3C-45.1575 326 -43.2575 324.1 -40.9575 324.1H49.2425C51.5425 324.1 53.4425 326 53.4425 328.3V355.7C53.5425 358 51.6425 359.9 49.2425 359.9Z" stroke="#B8D8C7" stroke-width="1.8" stroke-miterlimit="10" stroke-linecap="round" stroke-linejoin="round"/>
            <path d="M14.5425 333.8H-6.25751C-7.05751 333.8 -7.75751 333.1 -7.75751 332.3C-7.75751 331.5 -7.05751 330.8 -6.25751 330.8H14.5425C15.3425 330.8 16.0425 331.5 16.0425 332.3C16.0425 333.1 15.4425 333.8 14.5425 333.8Z" fill="#B8D8C7"/>
            <path d="M758.743 244.8H303.743C301.243 244.8 299.143 242.7 299.143 240.2V160.5C299.143 158 301.243 155.9 303.743 155.9H758.743C761.243 155.9 763.342 158 763.342 160.5V240.2C763.342 242.7 761.343 244.8 758.743 244.8Z" stroke="#B8D8C7" stroke-width="1.8" stroke-miterlimit="10" stroke-linecap="round" stroke-linejoin="round"/>
            <path d="M758.743 343.7H303.743C301.243 343.7 299.143 341.6 299.143 339.1V259.4C299.143 256.9 301.243 254.8 303.743 254.8H758.743C761.243 254.8 763.342 256.9 763.342 259.4V339.1C763.342 341.6 761.343 343.7 758.743 343.7Z" stroke="#B8D8C7" stroke-width="1.8" stroke-miterlimit="10" stroke-linecap="round" stroke-linejoin="round"/>
            <path d="M339.742 194.4H329.842V244.7H339.742V194.4Z" stroke="#B8D8C7" stroke-width="1.8" stroke-miterlimit="10" stroke-linecap="round" stroke-linejoin="round"/>
            <path d="M349.943 208.2H339.642V244.8H349.943V208.2Z" stroke="#B8D8C7" stroke-width="1.8" stroke-miterlimit="10" stroke-linecap="round" stroke-linejoin="round"/>
            <path d="M638.042 293.3H628.142V343.6H638.042V293.3Z" stroke="#B8D8C7" stroke-width="1.8" stroke-miterlimit="10" stroke-linecap="round" stroke-linejoin="round"/>
            <path d="M648.342 307H638.042V343.6H648.342V307Z" stroke="#B8D8C7" stroke-width="1.8" stroke-miterlimit="10" stroke-linecap="round" stroke-linejoin="round"/>
            <path d="M617.943 293.3H608.042V343.6H617.943V293.3Z" stroke="#B8D8C7" stroke-width="1.8" stroke-miterlimit="10" stroke-linecap="round" stroke-linejoin="round"/>
            <path d="M608.199 295.076L598.758 292.095L583.613 340.061L593.053 343.042L608.199 295.076Z" stroke="#B8D8C7" stroke-width="1.8" stroke-miterlimit="10" stroke-linecap="round" stroke-linejoin="round"/>
            <path d="M628.242 307H617.943V343.6H628.242V307Z" stroke="#B8D8C7" stroke-width="1.8" stroke-miterlimit="10" stroke-linecap="round" stroke-linejoin="round"/>
            <path d="M504.542 194.4H494.642V244.7H504.542V194.4Z" stroke="#B8D8C7" stroke-width="1.8" stroke-miterlimit="10" stroke-linecap="round" stroke-linejoin="round"/>
            <path d="M514.842 208.2H504.542V244.8H514.842V208.2Z" stroke="#B8D8C7" stroke-width="1.8" stroke-miterlimit="10" stroke-linecap="round" stroke-linejoin="round"/>
            <path d="M406.742 194.4H396.842V244.7H406.742V194.4Z" stroke="#B8D8C7" stroke-width="1.8" stroke-miterlimit="10" stroke-linecap="round" stroke-linejoin="round"/>
            <path d="M396.995 196.26L387.554 193.279L372.409 241.245L381.849 244.226L396.995 196.26Z" stroke="#B8D8C7" stroke-width="1.8" stroke-miterlimit="10" stroke-linecap="round" stroke-linejoin="round"/>
            <path d="M417.042 208.2H406.742V244.8H417.042V208.2Z" stroke="#B8D8C7" stroke-width="1.8" stroke-miterlimit="10" stroke-linecap="round" stroke-linejoin="round"/>
            <path d="M637.943 201L639.043 186.1C639.143 185.1 638.343 184.3 637.343 184.3H633.043H628.743C627.743 184.3 627.043 185.1 627.043 186.1L628.142 201C628.142 201 619.143 206.8 619.243 211.6C619.343 215.3 621.543 233 622.543 240.8C622.843 243 624.643 244.6 626.843 244.6H633.043H639.243C641.443 244.6 643.243 243 643.543 240.8C644.543 233 646.743 215.3 646.843 211.6C646.943 206.8 637.943 201 637.943 201Z" fill="#B8D8C7"/>
            <path d="M537.742 300.1L538.842 285.2C538.942 284.2 538.142 283.4 537.142 283.4H532.842H528.542C527.542 283.4 526.842 284.2 526.842 285.2L527.942 300.1C527.942 300.1 518.942 305.9 519.042 310.7C519.142 314.4 521.342 332.1 522.342 339.9C522.642 342.1 524.442 343.7 526.642 343.7H532.842H539.042C541.242 343.7 543.042 342.1 543.342 339.9C544.342 332.1 546.542 314.4 546.642 310.7C546.742 305.9 537.742 300.1 537.742 300.1Z" fill="#B8D8C7"/>
            <path d="M-1.25751 448.1H954.542" stroke="#B8D8C7" stroke-width="1.8" stroke-miterlimit="10" stroke-linecap="round" stroke-linejoin="round"/>
            <path d="M106.842 264.4H31.3425C28.0425 264.4 25.2425 261.7 25.2425 258.3V242.5C25.2425 239.2 27.9425 236.4 31.3425 236.4H106.842C110.142 236.4 112.942 239.1 112.942 242.5V258.3C112.942 261.7 110.242 264.4 106.842 264.4Z" stroke="#B8D8C7" stroke-width="1.8" stroke-miterlimit="10" stroke-linecap="round" stroke-linejoin="round"/>
            <path d="M32.7425 241H33.6425" stroke="#B8D8C7" stroke-width="1.8" stroke-miterlimit="10" stroke-linecap="round" stroke-linejoin="round"/>
            <path d="M98.7425 256.8H39.5425C39.5425 254 41.7425 251.8 44.5425 251.8H93.6425C96.4425 251.8 98.7425 254 98.7425 256.8Z" stroke="#B8D8C7" stroke-width="1.8" stroke-miterlimit="10" stroke-linecap="round" stroke-linejoin="round"/>
            <path d="M90.4425 215H47.8425V236.5H90.4425V215Z" stroke="#B8D8C7" stroke-width="1.8" stroke-miterlimit="10" stroke-linecap="round" stroke-linejoin="round"/>
        </g>
        <path d="M412.943 309L373.542 294C372.442 293.6 371.742 292.5 371.742 291.3L434.943 282.1C434.943 282.1 442.743 295.2 441.943 295.5C441.143 295.8 412.943 309 412.943 309Z" fill="#22272E"/>
        <path d="M371.742 291.4L413.943 306.2L438.142 294.5C438.142 294.5 432.842 282.6 432.242 282.7C431.642 282.8 371.742 291.4 371.742 291.4Z" fill="#63737A"/>
        <path d="M412.142 306.5L425.942 247.9C426.642 245.1 429.142 243 432.042 242.9L495.342 241.2C496.942 241.2 498.242 242.7 497.742 244.3L484.842 289.3C484.242 291.5 482.442 293.2 480.142 293.8L415.142 309.4C413.242 309.8 411.642 308.3 412.142 306.5Z" fill="#22272E"/>
        <path d="M465.91 272.654C466.845 269.475 465.97 266.418 463.957 265.826C461.943 265.234 459.553 267.332 458.619 270.511C457.684 273.69 458.559 276.747 460.573 277.339C462.586 277.931 464.976 275.833 465.91 272.654Z" fill="#63737A"/>
        <path d="M512.742 211.6L367.942 203.5C364.242 203.3 361.542 200.1 361.842 196.4L374.242 69.9C374.642 65.7 378.042 62.5 382.142 62.1L533.942 50.5C538.042 50.2 541.442 53.7 540.842 57.8L521.842 204.1C521.242 208.5 517.342 211.8 512.742 211.6Z" fill="#63737A"/>
        <path d="M508.742 211.6L363.242 203.5C359.542 203.3 356.742 200.1 357.142 196.4L369.542 69.3C369.942 65.1 373.342 61.8 377.542 61.5L530.042 49.8C534.142 49.5 537.542 53 537.042 57.1L517.943 204.1C517.243 208.5 513.242 211.8 508.742 211.6Z" fill="#22272E"/>
        <path d="M506.042 148.9L503.943 165.4L483.342 165L485.242 148.8L506.042 148.9Z" fill="white"/>
        <path d="M464.642 148.7L462.742 164.6L441.742 164.3L443.443 148.7H464.642Z" fill="#F4C2C9"/>
        <path d="M483.342 165L481.342 181.1L460.842 180.4L462.742 164.6L483.342 165Z" fill="#B8D8C7"/>
        <path d="M400.642 77.2L383.542 78.2C382.942 78.2 382.443 77.7 382.443 77.1L382.742 74.2C382.842 73.4 383.542 72.7 384.342 72.6L401.542 71.5C402.142 71.5 402.742 72 402.642 72.6L402.342 75.6C402.142 76.5 401.542 77.1 400.642 77.2Z" fill="#63737A"/>
        <path d="M411.443 111.7L381.243 112.6C380.043 112.6 379.042 111.6 379.142 110.3L380.743 94.5C380.843 93.1 382.042 92.1 383.342 92L413.743 90.5C415.042 90.4 416.042 91.5 415.842 92.8L414.042 109.2C414.042 110.5 412.843 111.6 411.443 111.7Z" fill="#B8D8C7"/>
        <path d="M458.042 110.3L424.943 111.3C423.743 111.3 422.742 110.3 422.842 109L424.642 92.3C424.742 90.9 425.943 89.9 427.243 89.8L460.642 88.2C461.942 88.1 462.943 89.2 462.743 90.5L460.743 107.8C460.542 109.2 459.442 110.2 458.042 110.3Z" fill="#FFE779"/>
        <path d="M508.743 108.8L472.243 109.9C470.943 109.9 470.042 108.9 470.142 107.6L472.243 90C472.443 88.6 473.542 87.6 474.842 87.5L511.542 85.7C512.842 85.6 513.842 86.7 513.642 88L511.342 106.3C511.242 107.7 510.042 108.7 508.743 108.8Z" fill="#F4C2C9"/>
        <path d="M419.142 194.9L494.943 198.3C497.643 198.4 500.043 196.4 500.443 193.7L508.842 127.5C509.242 124.3 506.743 121.5 503.543 121.6L426.043 123.1C423.343 123.2 421.142 125.2 420.842 127.8L414.142 189.1C413.742 192 416.042 194.7 419.142 194.9Z" stroke="#63737A" stroke-width="1.8" stroke-miterlimit="10" stroke-linecap="round" stroke-linejoin="round"/>
        <path d="M420.142 133.2L508.142 132.3" stroke="#63737A" stroke-width="1.8" stroke-miterlimit="10" stroke-linecap="round" stroke-linejoin="round"/>
        <path d="M445.242 133.6L438.142 195.7" stroke="#63737A" stroke-width="1.8" stroke-miterlimit="10" stroke-linecap="round" stroke-linejoin="round"/>
        <path d="M466.443 133.4L458.943 196.7" stroke="#63737A" stroke-width="1.8" stroke-miterlimit="10" stroke-linecap="round" stroke-linejoin="round"/>
        <path d="M487.142 133.3L479.342 197.6" stroke="#63737A" stroke-width="1.8" stroke-miterlimit="10" stroke-linecap="round" stroke-linejoin="round"/>
        <path d="M443.542 148.7L506.042 148.9" stroke="#63737A" stroke-width="1.8" stroke-miterlimit="10" stroke-linecap="round" stroke-linejoin="round"/>
        <path d="M441.742 164.3L503.943 165.4" stroke="#63737A" stroke-width="1.8" stroke-miterlimit="10" stroke-linecap="round" stroke-linejoin="round"/>
        <path d="M439.943 179.8L501.842 181.7" stroke="#63737A" stroke-width="1.8" stroke-miterlimit="10" stroke-linecap="round" stroke-linejoin="round"/>
        <path d="M509.342 67.4C509.142 68.8 508.042 70 506.942 70.1C505.742 70.2 504.942 69.1 505.142 67.7C505.342 66.3 506.442 65.1 507.542 65C508.742 65 509.542 66 509.342 67.4Z" fill="#63737A"/>
        <path d="M499.542 68.1C499.342 69.5 498.342 70.7 497.142 70.7C495.942 70.8 495.142 69.7 495.342 68.3C495.542 66.9 496.542 65.7 497.742 65.7C498.942 65.6 499.742 66.7 499.542 68.1Z" fill="#63737A"/>
        <path d="M489.943 68.7C489.743 70.1 488.742 71.2 487.542 71.3C486.442 71.4 485.643 70.3 485.743 69C485.943 67.6 486.942 66.5 488.142 66.4C489.342 66.2 490.043 67.3 489.943 68.7Z" fill="#63737A"/>
        <path d="M201.743 191.4L108.443 198.8C105.543 199 102.943 196.4 102.743 193L97.2426 106.6C97.0426 103.2 99.5425 100.1 102.443 100.4L192.343 109.4C195.243 109.7 197.543 112 197.843 115.1L205.143 187.2C205.543 189.3 203.943 191.2 201.743 191.4Z" fill="#F8AB5D"/>
        <path d="M206.243 190.6L111.843 198.1C108.843 198.3 106.243 195.7 106.043 192.3L100.643 105.4C100.443 101.9 103.043 98.8 105.943 99.1L196.943 108C199.943 108.3 202.143 110.6 202.543 113.7L209.943 186.2C210.043 188.4 208.443 190.4 206.243 190.6Z" fill="#FFE779"/>
        <path d="M143.943 180.5L122.343 181.5C120.843 181.6 119.443 180.2 119.343 178.5L115.343 119.8C115.243 118.2 116.443 116.7 117.843 116.8L139.143 118.3C140.543 118.4 141.643 119.6 141.743 121.2L146.243 177.6C146.343 179.1 145.243 180.4 143.943 180.5Z" fill="#22272E"/>
        <path d="M145.843 179.6L124.143 180.7C122.643 180.8 121.243 179.4 121.143 177.7L117.143 118.8C117.043 117.2 118.243 115.7 119.643 115.8L141.043 117.3C142.443 117.4 143.543 118.6 143.643 120.2L148.143 176.8C148.243 178.2 147.143 179.5 145.843 179.6Z" fill="#6DAFA7"/>
        <path d="M128.143 120.3L131.443 120.5" stroke="#22272E" stroke-width="1.8" stroke-miterlimit="10" stroke-linecap="round" stroke-linejoin="round"/>
        <path d="M133.243 120.6H133.543" stroke="#22272E" stroke-width="1.8" stroke-miterlimit="10" stroke-linecap="round" stroke-linejoin="round"/>
        <path d="M117.443 123.4L144.043 124.9" stroke="#22272E" stroke-width="1.8" stroke-miterlimit="10" stroke-linecap="round" stroke-linejoin="round"/>
        <path d="M120.843 173.1L147.743 172.2" stroke="#22272E" stroke-width="1.8" stroke-miterlimit="10" stroke-linecap="round" stroke-linejoin="round"/>
        <path d="M189.342 121.3L168.342 119.7C167.042 119.6 166.043 120.7 166.143 121.9L166.842 130.1C166.942 131.1 167.742 132 168.842 132L189.842 132.8C191.142 132.9 192.143 131.8 192.043 130.5L191.342 123.1C191.142 122.2 190.342 121.4 189.342 121.3Z" fill="#6DAFA7"/>
        <path d="M173.343 142.3C173.443 143.7 172.343 144.8 170.843 144.8C169.343 144.8 167.943 143.6 167.843 142.2C167.743 140.8 168.843 139.7 170.443 139.7C171.943 139.8 173.243 140.9 173.343 142.3Z" fill="#6DAFA7"/>
        <path d="M177.943 142.4L192.243 142.6" stroke="#63737A" stroke-width="1.8" stroke-miterlimit="10" stroke-linecap="round" stroke-linejoin="round"/>
        <path d="M174.143 151.1C174.243 152.5 173.143 153.6 171.643 153.7C170.143 153.7 168.743 152.6 168.643 151.2C168.543 149.8 169.643 148.6 171.243 148.6C172.643 148.6 174.043 149.7 174.143 151.1Z" fill="#6DAFA7"/>
        <path d="M178.743 151L192.943 150.8" stroke="#63737A" stroke-width="1.8" stroke-miterlimit="10" stroke-linecap="round" stroke-linejoin="round"/>
        <path d="M174.943 159.8C175.043 161.2 173.943 162.3 172.443 162.4C170.943 162.5 169.543 161.4 169.443 160C169.343 158.6 170.443 157.4 172.043 157.4C173.443 157.3 174.743 158.4 174.943 159.8Z" fill="#6DAFA7"/>
        <path d="M179.443 159.6L193.643 159" stroke="#63737A" stroke-width="1.8" stroke-miterlimit="10" stroke-linecap="round" stroke-linejoin="round"/>
        <path d="M158.943 255.1C157.643 255.1 163.443 241.3 169.443 243.2C175.543 245.2 166.543 255.2 158.943 255.1Z" fill="#6DAFA7"/>
        <path d="M159.643 257C159.643 257 153.143 248.8 146.643 250.7C140.243 252.6 148.243 261.8 159.643 257Z" fill="#6DAFA7"/>
        <path d="M157.743 248.8C157.743 248.8 167.443 232.1 163.343 228.1C156.043 221 146.843 242 157.743 248.8Z" fill="#6DAFA7"/>
        <path d="M173.942 286.8L159.743 290C155.743 290.9 151.743 288.8 150.143 285L143.643 269.4C142.343 266.4 144.142 262.9 147.342 262.2L173.143 256.4C176.343 255.7 179.443 258 179.542 261.3L180.342 278.1C180.742 282.3 177.942 285.9 173.942 286.8Z" fill="#22272E"/>
        <path d="M160.542 260.5C160.542 260.5 156.043 246.8 157.743 240.4" stroke="#22272E" stroke-width="1.8" stroke-miterlimit="10" stroke-linecap="round" stroke-linejoin="round"/>
        <path d="M211.142 317.1C211.142 317.1 210.542 324 208.942 328.1C207.342 332.2 204.542 337.2 205.442 344.1C206.342 351 212.942 361.1 215.542 360.8C218.142 360.5 216.742 356.1 216.742 356.1C216.742 356.1 219.342 359.8 221.842 358.7C224.342 357.7 220.942 349.6 220.942 349.6C220.942 349.6 224.042 354.6 226.842 354C229.642 353.4 224.042 345.5 224.042 345.5C224.042 345.5 227.742 349.6 228.742 349C229.742 348.4 230.642 348.7 228.742 344C226.842 339.3 229.942 324 229.842 320.5C229.742 317.1 216.142 313.9 211.142 317.1Z" fill="#F4C2C9"/>
        <path d="M248.242 331L267.742 371.8C268.542 373.4 267.842 375.3 266.242 376.1L208.342 405.3C206.642 406.2 204.542 405.4 203.842 403.6L182.142 347.8C181.442 346 182.542 343.9 184.442 343.5L244.542 329.3C246.042 328.9 247.642 329.6 248.242 331Z" fill="#FFE779"/>
        <path d="M220.742 376.5L223.942 384.2C224.342 385.2 223.942 386.3 222.942 386.7L214.742 390.4C213.742 390.9 212.542 390.4 212.142 389.4L208.842 381.3C208.442 380.3 208.942 379.2 209.942 378.8L218.142 375.5C219.142 375.1 220.242 375.6 220.742 376.5Z" fill="#6DAFA7"/>
        <path d="M204.442 370.4L196.242 350.1" stroke="#63737A" stroke-width="1.8" stroke-miterlimit="10" stroke-linecap="round" stroke-linejoin="round"/>
        <path d="M210.542 368.2L202.342 348.4" stroke="#63737A" stroke-width="1.8" stroke-miterlimit="10" stroke-linecap="round" stroke-linejoin="round"/>
        <path d="M239.042 369.1L242.042 375.9C242.442 376.9 242.042 378 241.042 378.4L234.642 381.3C233.642 381.7 232.542 381.3 232.042 380.3L228.942 373.2C228.542 372.2 228.942 371.1 229.942 370.6L236.442 368C237.542 367.7 238.642 368.2 239.042 369.1Z" fill="#F4C2C9"/>
        <path d="M224.642 363.1L216.642 344.5" stroke="#63737A" stroke-width="1.8" stroke-miterlimit="10" stroke-linecap="round" stroke-linejoin="round"/>
        <path d="M229.842 361.2L221.842 343.1" stroke="#63737A" stroke-width="1.8" stroke-miterlimit="10" stroke-linecap="round" stroke-linejoin="round"/>
        <path d="M254.042 361.1L258.442 370.5L249.942 374.4L245.442 364.6L254.042 361.1Z" stroke="#22272E" stroke-width="1.8" stroke-miterlimit="10" stroke-linecap="round" stroke-linejoin="round"/>
        <path d="M241.942 356.9L234.142 339.8" stroke="#63737A" stroke-width="1.8" stroke-miterlimit="10" stroke-linecap="round" stroke-linejoin="round"/>
        <path d="M246.342 355.3L238.642 338.6" stroke="#63737A" stroke-width="1.8" stroke-miterlimit="10" stroke-linecap="round" stroke-linejoin="round"/>
        <path d="M230.642 319.4C230.642 319.4 230.742 322.6 232.242 328.5C233.742 334.4 234.342 341.4 234.442 344.1C234.542 346.8 230.442 345.9 228.142 341.7C225.842 337.5 224.742 336.3 222.742 335.2C220.642 334 218.942 332.9 217.742 329.2C216.542 325.5 227.242 315.3 230.642 319.4Z" fill="#F4C2C9"/>
        <path d="M263.342 153.6C257.642 153.6 242.242 155.8 229.042 185.3C218.042 209.8 211.642 223.5 210.042 234.6C208.442 245.8 207.142 272.2 208.242 291.6C209.442 311 210.242 319.2 210.242 319.2C210.242 319.2 219.242 325.1 231.142 319.2C231.142 319.2 234.242 295.4 236.642 281.4C238.942 267.4 239.942 253.3 239.342 247C239.342 247 255.042 219.4 262.042 208.4C269.242 197.4 295.542 153.6 263.342 153.6Z" fill="#6DAFA7"/>
        <path d="M209.642 311.7C209.642 311.7 220.142 317.4 232.142 311.7" stroke="#22272E" stroke-width="1.8" stroke-miterlimit="10" stroke-linecap="round" stroke-linejoin="round"/>
        <path d="M210.442 231.9C211.242 229.9 213.142 227.2 217.442 226.5C224.242 225.5 228.042 232.4 226.442 240.6C224.842 248.8 218.642 252.9 213.642 252C210.942 251.5 209.642 249.6 209.142 248.3" stroke="#22272E" stroke-width="1.8" stroke-miterlimit="10" stroke-linecap="round" stroke-linejoin="round"/>
        <path d="M340.042 545.8C340.042 545.8 340.442 539.7 345.842 535.8C351.242 532 357.442 539 343.342 544.7" stroke="#63737A" stroke-width="1.8" stroke-miterlimit="10" stroke-linecap="round" stroke-linejoin="round"/>
        <path d="M345.342 543.9C345.342 543.9 351.142 541.2 354.142 544.6C357.042 548 348.642 550.3 344.142 547.3" stroke="#63737A" stroke-width="1.8" stroke-miterlimit="10" stroke-linecap="round" stroke-linejoin="round"/>
        <path d="M253.243 545.8C253.243 545.8 261.743 535.9 269.143 535.8C276.443 535.8 268.143 544 258.843 546.9" stroke="#63737A" stroke-width="1.8" stroke-miterlimit="10" stroke-linecap="round" stroke-linejoin="round"/>
        <path d="M259.643 545.8C259.643 545.8 270.042 541.8 271.342 545.8C272.642 549.8 260.342 548.7 260.342 548.7" stroke="#63737A" stroke-width="1.8" stroke-miterlimit="10" stroke-linecap="round" stroke-linejoin="round"/>
        <path d="M315.043 519.8C315.043 519.8 314.643 537.6 315.043 542.5C315.443 547.4 324.443 550.5 331.643 548.2C338.843 545.9 339.043 541.2 339.043 541.2C339.043 541.2 340.642 519.7 340.642 515.6C340.642 511.5 315.143 511.7 315.043 519.8Z" fill="#F4C2C9"/>
        <path d="M315.043 519.8C315.043 519.8 314.943 524.1 314.943 529.1C323.043 532.2 332.943 531.2 339.943 530C340.343 524 340.743 517.5 340.743 515.4C340.643 511.4 315.143 511.7 315.043 519.8Z" fill="#22272E"/>
        <path d="M314.842 539.5C314.842 539.5 313.442 539.3 312.042 549.9C310.642 560.5 309.543 566.9 313.743 567.7C317.943 568.5 357.842 567.7 362.142 567.7C366.442 567.7 369.342 565.4 369.142 562.6C368.942 559.8 358.142 555.4 353.142 551.4C348.042 547.5 340.842 542.6 340.042 539.9C338.642 535.4 335.842 533.7 333.442 539.5C331.542 544 326.542 544.5 320.342 543.7C315.942 543.2 314.842 539.5 314.842 539.5Z" fill="#22272E"/>
        <path d="M354.643 552.5C354.643 552.5 346.343 554.3 347.543 564.6" stroke="#63737A" stroke-width="1.8" stroke-miterlimit="10" stroke-linecap="round" stroke-linejoin="round"/>
        <path d="M233.543 516.4C233.543 516.4 231.343 538.5 231.543 541.5C231.743 544.4 241.343 545.4 247.543 544.6C253.843 543.8 254.543 541.9 254.543 541.9C254.543 541.9 259.443 521.2 259.443 516.5C259.443 511.8 235.543 510.6 233.543 516.4Z" fill="#F4C2C9"/>
        <path d="M233.543 516.4C233.543 516.4 233.143 520.3 232.743 525.1C240.843 528.9 249.143 529.2 257.643 528.5C258.643 523.5 259.543 518.5 259.543 516.5C259.643 511.7 235.543 510.6 233.543 516.4Z" fill="#22272E"/>
        <path d="M231.643 535.8C231.643 535.8 229.943 541.1 229.343 545.8C228.743 550.5 224.443 565.9 227.343 568.1C230.243 570.3 271.743 568.1 275.343 568.1C278.843 568.1 283.443 565.9 282.943 562C282.443 558.1 274.743 556.5 269.143 552.6C263.543 548.7 256.343 541.5 256.343 541.5C256.343 541.5 257.543 535.5 256.543 533.8C255.543 532.1 252.443 538.9 250.243 539.7C248.043 540.5 243.343 541.2 235.843 539.7C232.243 538.9 231.643 535.8 231.643 535.8Z" fill="#22272E"/>
        <path d="M269.143 552.5C269.143 552.5 262.143 554.9 261.243 564.6" stroke="#63737A" stroke-width="1.8" stroke-miterlimit="10" stroke-linecap="round" stroke-linejoin="round"/>
        <path d="M338.143 273C338.143 273 341.643 285.1 343.643 310.2C345.643 335.3 348.343 381.1 349.143 390.1C349.943 399.1 349.943 423 347.543 451.9C345.243 480.9 346.343 504.7 347.143 510.2C347.943 515.7 344.043 520.4 340.143 521.9C336.243 523.5 318.643 523.5 315.043 521.9C315.043 521.9 306.443 517.2 307.643 509C308.843 500.8 309.243 484.3 305.343 453.8C301.443 423.3 305.343 401.3 305.343 401.3C305.343 401.3 300.843 387.5 295.743 373.2C293.943 368.1 292.043 362.9 290.343 358.2C287.843 351.5 285.543 346.1 284.143 343.7C279.043 335.1 275.143 297.5 281.043 277.9C286.843 258.5 328.343 258.5 338.143 273Z" fill="#22272E"/>
        <path d="M246.543 271.8C246.543 271.8 236.343 299.2 239.143 330.5C241.943 361.8 247.743 398.2 246.543 401C245.343 403.7 241.043 417.8 236.743 449.1C232.443 480.4 223.043 504.3 225.343 510.2C227.643 516.1 234.143 519.2 235.843 519.6C237.543 520 255.543 521.9 259.843 521.2C264.143 520.4 270.843 513.4 270.843 505.2C270.843 497 271.643 479.4 279.843 451.2C288.043 423 290.943 414.7 293.843 401.8C296.743 388.9 299.443 320.5 299.443 320.5C299.443 320.5 306.743 286.4 283.543 279.4C260.343 272.2 246.543 271.8 246.543 271.8Z" fill="#22272E"/>
        <path d="M268.843 342.5C268.843 342.5 285.143 339.9 291.043 344.1" stroke="#63737A" stroke-width="1.8" stroke-miterlimit="10" stroke-linecap="round" stroke-linejoin="round"/>
        <path d="M245.942 296.5C245.942 296.5 255.842 300 272.842 301.7C272.842 301.7 271.042 319.3 269.942 323C268.742 326.7 261.343 329.9 255.743 329.9C250.543 329.9 244.842 324.2 243.642 320C242.142 314.3 245.942 296.5 245.942 296.5Z" stroke="#63737A" stroke-width="1.8" stroke-miterlimit="10" stroke-linecap="round" stroke-linejoin="round"/>
        <path d="M292.042 301.9C292.042 301.9 308.842 303.7 321.342 299.1C321.342 299.1 323.242 318 322.942 321.1C322.642 324.2 315.642 330 310.442 331.2C306.042 332.2 298.842 328.9 295.442 325.9C292.042 322.9 292.042 301.9 292.042 301.9Z" stroke="#63737A" stroke-width="1.8" stroke-miterlimit="10" stroke-linecap="round" stroke-linejoin="round"/>
        <path d="M344.642 325C344.642 325 336.743 320.2 335.943 299" stroke="#63737A" stroke-width="1.8" stroke-miterlimit="10" stroke-linecap="round" stroke-linejoin="round"/>
        <path d="M295.642 373.3C293.842 368.2 291.942 363 290.242 358.3C287.742 351.6 285.442 346.2 284.042 343.8" stroke="#63737A" stroke-width="1.8" stroke-miterlimit="10" stroke-linecap="round" stroke-linejoin="round"/>
        <path d="M255.443 399.9C255.443 399.9 267.542 397.2 274.842 399.9" stroke="#63737A" stroke-width="1.8" stroke-miterlimit="10" stroke-linecap="round" stroke-linejoin="round"/>
        <path d="M305.243 401.4C305.243 401.4 311.243 399 317.443 400" stroke="#63737A" stroke-width="1.8" stroke-miterlimit="10" stroke-linecap="round" stroke-linejoin="round"/>
        <path d="M237.143 523.1C237.143 523.1 236.743 526.6 236.743 527.4" stroke="#63737A" stroke-width="1.8" stroke-miterlimit="10" stroke-linecap="round" stroke-linejoin="round"/>
        <path d="M244.842 524.8C244.842 524.8 244.643 528.5 244.443 529.2" stroke="#63737A" stroke-width="1.8" stroke-miterlimit="10" stroke-linecap="round" stroke-linejoin="round"/>
        <path d="M254.642 525.2C254.642 525.2 254.142 528.7 254.042 529.2" stroke="#63737A" stroke-width="1.8" stroke-miterlimit="10" stroke-linecap="round" stroke-linejoin="round"/>
        <path d="M318.743 526.3C318.743 526.3 318.743 530.3 318.743 531" stroke="#63737A" stroke-width="1.8" stroke-miterlimit="10" stroke-linecap="round" stroke-linejoin="round"/>
        <path d="M327.743 526.6C327.743 526.6 327.443 530.6 327.143 531.5" stroke="#63737A" stroke-width="1.8" stroke-miterlimit="10" stroke-linecap="round" stroke-linejoin="round"/>
        <path d="M336.842 526.6C336.842 526.6 336.642 529.6 336.542 530.9" stroke="#63737A" stroke-width="1.8" stroke-miterlimit="10" stroke-linecap="round" stroke-linejoin="round"/>
        <path d="M315.642 121.1C319.619 121.1 322.842 117.205 322.842 112.4C322.842 107.595 319.619 103.7 315.642 103.7C311.666 103.7 308.442 107.595 308.442 112.4C308.442 117.205 311.666 121.1 315.642 121.1Z" stroke="#22272E" stroke-width="1.8" stroke-miterlimit="10" stroke-linecap="round" stroke-linejoin="round"/>
        <path d="M315.542 92.8C315.542 92.8 318.142 97.4 317.342 107.3C316.442 117.3 318.742 125.4 317.542 131.9C316.242 138.5 311.042 141.7 308.242 142.5C305.542 143.3 291.542 145.2 284.642 136C277.742 126.8 271.442 99.7 282.642 94.5C293.842 89.4 310.842 87.5 315.542 92.8Z" fill="#F4C2C9"/>
        <path d="M317.442 131.9C318.742 125.3 316.342 117.3 317.242 107.3C318.142 97.3 315.442 92.8 315.442 92.8C310.742 87.5 293.842 89.4 282.542 94.6C274.042 98.5 275.642 115 279.842 126.7C287.942 135.7 299.542 141.4 311.942 139.5C312.242 139.5 312.642 139.5 313.242 139.4C315.142 137.7 316.842 135.3 317.442 131.9Z" fill="#F4C2C9"/>
        <path d="M279.942 126.7C281.342 130.5 282.942 133.8 284.642 136.1C291.542 145.3 305.442 143.3 308.242 142.6C309.542 142.2 311.542 141.2 313.342 139.6C312.742 139.5 302.142 146.2 279.942 126.7Z" fill="#E26E85"/>
        <path d="M310.842 112.3L322.842 111.9" stroke="#22272E" stroke-width="1.8" stroke-miterlimit="10" stroke-linecap="round" stroke-linejoin="round"/>
        <path d="M296.542 136.7C296.542 136.7 301.742 138.6 304.842 142C304.842 142 303.842 147.8 304.242 150.7C304.642 153.6 300.442 159.8 291.342 159.3C282.242 158.8 274.442 151.9 274.442 151.9C274.442 151.9 275.542 139.3 277.042 135.6C278.642 131.8 296.542 136.7 296.542 136.7Z" fill="#F4C2C9"/>
        <path d="M302.142 139.6C302.142 139.6 302.142 139.7 302.142 139.6C303.842 140.8 304.642 142.8 304.442 144.8C304.242 146.7 304.042 149.1 304.242 150.6" stroke="#E26E85" stroke-width="1.8" stroke-miterlimit="10" stroke-linecap="round" stroke-linejoin="round"/>
        <path d="M310.142 112.9C310.142 112.9 312.342 111.3 313.042 108.7C313.742 106.1 314.142 104.1 314.142 104.1C314.142 104.1 315.542 105.4 317.342 106.1C319.242 106.8 324.142 101.6 324.842 94.5C325.542 87.4 322.242 80 314.142 76.9C311.042 75.7 306.342 75.5 301.642 75.8C295.042 76.2 288.742 78.4 283.142 81.9C281.942 82.6 280.442 83.3 278.742 83.5C272.942 84.3 269.342 86.6 265.942 94.7C262.542 102.7 262.142 109 266.742 118.7C271.342 128.4 272.742 129 273.442 133C274.242 137 273.242 141.5 276.442 140.8C285.242 138.8 294.242 141.3 296.342 140C298.542 138.7 305.442 126.3 306.242 120.3C307.042 114.2 308.842 112.2 310.142 112.9Z" fill="#22272E"/>
        <path d="M311.442 113.5C311.442 113.5 309.342 107.9 305.342 109.6C299.942 111.9 303.242 121.4 308.442 123" fill="#F4C2C9"/>
        <path d="M305.542 114.5C305.442 114.1 305.342 113.6 305.542 113.1C305.642 112.9 305.742 112.6 306.042 112.4C306.242 112.2 306.642 112 306.942 112C307.042 112 307.342 112 307.542 112.1C307.742 112.2 307.942 112.3 308.042 112.5C308.142 112.6 308.242 112.8 308.342 112.9C308.442 113 308.442 113.2 308.542 113.3C308.742 113.8 308.742 114.2 308.742 114.6C308.842 115.4 308.742 116.2 308.842 116.7C308.842 117.1 309.342 117.6 310.242 117.8C309.942 118.1 309.442 118.3 308.942 118.2C308.442 118.1 307.842 117.8 307.542 117.3C307.042 116.3 307.042 115.5 306.942 114.7C306.942 114.3 306.842 113.9 306.842 113.7C306.842 113.6 306.842 113.6 306.842 113.5C306.842 113.4 306.842 113.4 306.842 113.4C306.842 113.4 307.042 113.4 306.942 113.4C306.842 113.3 306.642 113.3 306.342 113.5C305.942 113.8 305.742 114.1 305.542 114.5Z" fill="#22272E"/>
        <path d="M273.542 150.7C273.542 150.7 274.442 144.3 275.042 143.2C275.642 142.2 290.642 141 299.242 143.2C307.842 145.4 307.042 152.7 307.042 152.7C307.042 152.7 291.542 150.9 273.542 150.7Z" fill="#6DAFA7"/>
        <path d="M243.642 174C245.342 164.4 248.942 149.5 283.642 149.4C313.242 149.3 326.942 153.7 334.142 159.2C341.342 164.7 342.142 179.2 339.842 201.9C337.542 224.6 337.142 238.1 338.442 252.2C339.842 266.3 345.442 272.4 337.842 280C337.842 280 315.942 287.2 287.942 287.2C259.942 287.2 246.042 279.4 245.442 277.2C244.842 275 242.142 274.3 244.642 268.6C247.142 262.9 248.842 242.8 247.242 230.7C245.642 218.6 239.442 198.1 243.642 174Z" fill="#FFE779"/>
        <path d="M379.342 149.5C379.342 149.5 381.642 142 381.342 139.3C381.042 136.6 378.842 130.6 377.842 128.4C376.842 126.2 377.643 120 377.443 116.9C377.243 113.8 380.842 114.6 381.842 117.7C382.842 120.8 384.042 122.2 384.042 122.2C384.042 122.2 387.942 113.2 388.542 110.7C389.142 108.2 390.742 100.2 393.142 98.3C395.442 96.3 396.442 98.4 395.142 103.8C394.242 107.5 394.342 109.6 394.342 109.9C394.342 110.2 397.243 110.7 398.443 112.4C398.943 113.1 399.342 115.7 399.342 115.7C399.542 115.8 400.542 115.6 401.742 116.3C402.442 116.7 403.243 118 403.943 118.6C404.643 119.3 405.342 120 405.842 120.8C406.742 122.1 407.442 124.7 404.742 135.7C403.242 141.7 400.542 143.8 398.542 157.8C396.242 171.8 377.342 158.4 379.342 149.5Z" fill="#F4C2C9"/>
        <path d="M380.943 142.8C380.343 145.9 379.342 149.4 379.342 149.4C377.342 158.3 396.242 171.7 398.342 157.7C398.842 154.1 399.443 151.2 399.943 148.9C395.043 143.8 388.543 140.9 380.943 142.8Z" fill="#63737A"/>
        <path d="M395.445 151.55C397.691 150.486 398.572 147.641 397.414 145.195C396.255 142.749 393.495 141.629 391.249 142.693C389.003 143.757 388.122 146.602 389.28 149.048C390.439 151.493 393.199 152.614 395.445 151.55Z" fill="white"/>
        <path d="M331.142 157.3C331.142 157.3 339.042 157.3 350.242 172.4C361.442 187.5 363.742 191.4 363.742 191.4C363.742 191.4 366.042 183 370.742 171.2C374.042 162.9 376.142 155 377.142 151.1C377.542 149.3 379.042 147.8 380.842 147.4C384.942 146.5 392.342 146.4 398.642 155.6C399.342 156.7 399.643 158 399.443 159.2C398.443 165 395.542 182.9 393.142 200.3C390.242 221.4 388.642 239.2 374.342 241C364.042 242.3 349.042 228.8 338.542 218.3C334.442 214.2 331.042 210.5 328.942 208.3C323.642 202.9 315.342 192.4 315.342 177.3C315.342 160.7 327.642 156.3 331.142 157.3Z" fill="#6DAFA7"/>
        <path d="M338.542 218.4C334.442 214.3 331.042 210.6 328.942 208.4C323.642 203 315.342 192.5 315.342 177.4" stroke="#F8AB5D" stroke-width="1.8" stroke-miterlimit="10" stroke-linecap="round" stroke-linejoin="round"/>
        <path d="M363.742 191.3C363.742 191.3 376.642 208.1 379.742 216.2" stroke="#22272E" stroke-width="1.8" stroke-miterlimit="10" stroke-linecap="round" stroke-linejoin="round"/>
        <path d="M367.943 240.1C367.243 239.6 366.443 238.6 366.543 236.5C366.743 232.7 370.543 226.6 377.743 225.1C383.843 223.8 386.943 225.7 387.543 227.7" stroke="#22272E" stroke-width="1.8" stroke-miterlimit="10" stroke-linecap="round" stroke-linejoin="round"/>
        <path d="M376.342 154.1C376.342 154.1 389.142 148.5 398.642 163.8" stroke="#22272E" stroke-width="1.8" stroke-miterlimit="10" stroke-linecap="round" stroke-linejoin="round"/>
        <path d="M394.142 109.8C394.142 109.8 393.942 113.2 393.842 113.8C393.742 114.5 392.842 118.1 392.742 119.5" stroke="#E26E85" stroke-width="1.8" stroke-miterlimit="10" stroke-linecap="round" stroke-linejoin="round"/>
        <path d="M399.142 115.6C399.142 115.6 399.142 116.8 399.142 118.5C399.142 119.5 398.642 121.9 398.642 121.9" stroke="#E26E85" stroke-width="1.8" stroke-miterlimit="10" stroke-linecap="round" stroke-linejoin="round"/>
        <path d="M403.443 118.7C403.443 118.7 403.742 120.2 403.742 121.4C403.742 122.6 403.242 125.3 403.242 125.3" stroke="#E26E85" stroke-width="1.8" stroke-miterlimit="10" stroke-linecap="round" stroke-linejoin="round"/>
        <path d="M383.943 122.1C383.943 122.1 383.342 123.6 382.642 124.4" stroke="#E26E85" stroke-width="1.8" stroke-miterlimit="10" stroke-linecap="round" stroke-linejoin="round"/>
        <path d="M333.342 12.4C333.342 12.4 327.243 36.7 336.243 53.1C336.943 54.4 338.542 54.9 339.842 54.2L352.043 47.4L347.142 10.6L333.342 12.4Z" fill="#6DAFA7"/>
        <path d="M336.043 12.9C336.043 12.9 330.243 37 344.243 54.6C345.043 55.6 346.543 55.9 347.743 55.2L363.043 46L350.443 9.20001C350.343 9.30001 338.043 9.90002 336.043 12.9Z" fill="#FFE779"/>
        <path d="M333.343 12.4L339.143 13.6L371.843 1L365.643 0L333.343 12.4Z" fill="#B8D8C7"/>
        <path d="M371.842 1C371.842 1 372.343 17 391.543 29.1C393.243 30.2 393.243 32.6 391.543 33.6L360.943 51.7C360.143 52.2 359.142 52.2 358.342 51.8C338.842 41.5 339.142 13.5 339.142 13.5L371.842 1Z" fill="#6DAFA7"/>
        <path d="M363.443 21.2C363.243 20.9 362.943 20.7 362.543 20.4C361.743 20 360.942 20.1 360.142 20.4C358.842 21 358.243 22 358.343 23.5C358.443 24.3 358.743 25.5 359.443 27C359.643 26.3 360.042 25.7 360.642 25.1C361.142 24.6 361.943 24.1 362.743 23.7C364.643 22.9 366.443 22.6 368.243 23C370.043 23.4 371.542 24.3 372.642 25.8C373.742 27.3 374.143 29 373.843 30.9C373.543 32.8 372.143 34.5 369.443 35.9C366.643 37.3 363.743 37.3 361.243 35.9C359.243 34.8 357.643 33 356.343 30.5C355.543 29.1 355.043 27.9 354.743 26.9C354.143 25.2 354.043 23.7 354.243 22.5C354.443 21.4 354.843 20.4 355.543 19.6C356.243 18.7 357.243 18.1 358.543 17.5C360.443 16.7 362.142 16.5 363.642 16.8C365.242 17.1 366.443 17.8 367.443 19.1C365.843 20 365.043 20.4 363.443 21.2ZM364.543 33.5C365.543 33.8 366.642 33.7 367.642 33.3C368.642 32.8 369.143 32.1 369.343 31.3C369.543 30.5 369.242 29.6 368.642 28.7C367.942 27.7 367.143 27.1 366.243 26.9C365.343 26.7 364.343 26.7 363.543 27.1C362.843 27.4 362.243 27.9 361.943 28.5C361.443 29.4 361.543 30.4 362.243 31.6C362.743 32.5 363.543 33.1 364.543 33.5Z" fill="#FFE779"/>
        <path d="M232.743 73.3H265.743L269.143 75.5C270.243 76.2 271.643 75.4 271.643 74.1V50.8C271.643 48.4 269.743 46.5 267.342 46.5H232.743C230.343 46.5 228.443 48.4 228.443 50.8V69C228.443 71.4 230.343 73.3 232.743 73.3Z" fill="#F4C2C9"/>
        <path d="M238.243 55.8L239.943 57.5L243.243 54.2" stroke="#22272E" stroke-width="1.8" stroke-miterlimit="10" stroke-linecap="round" stroke-linejoin="round"/>
        <path d="M248.343 56.3H259.943" stroke="#22272E" stroke-width="1.8" stroke-miterlimit="10" stroke-linecap="round" stroke-linejoin="round"/>
        <path d="M238.243 63.9L239.943 65.6L243.243 62.3" stroke="#22272E" stroke-width="1.8" stroke-miterlimit="10" stroke-linecap="round" stroke-linejoin="round"/>
        <path d="M248.343 64.4H259.943" stroke="#22272E" stroke-width="1.8" stroke-miterlimit="10" stroke-linecap="round" stroke-linejoin="round"/>
        <path d="M387.342 362.9L384.342 366.1C383.842 366.6 383.842 367.4 384.342 367.9C384.742 368.4 385.442 368.5 386.042 368.1L389.542 366L387.342 362.9Z" fill="#22272E"/>
        <path d="M414.042 370.7L414.842 375C414.942 375.7 414.542 376.3 413.842 376.5C413.242 376.7 412.642 376.4 412.342 375.8L410.542 372.1L414.042 370.7Z" fill="#22272E"/>
        <path d="M404.242 374.4C415.233 374.4 424.142 365.49 424.142 354.5C424.142 343.51 415.233 334.6 404.242 334.6C393.252 334.6 384.342 343.51 384.342 354.5C384.342 365.49 393.252 374.4 404.242 374.4Z" fill="#6DAFA7"/>
        <path d="M404.242 367.3C411.312 367.3 417.042 361.569 417.042 354.5C417.042 347.431 411.312 341.7 404.242 341.7C397.173 341.7 391.443 347.431 391.443 354.5C391.443 361.569 397.173 367.3 404.242 367.3Z" fill="#FFE779"/>
        <path d="M407.842 359.1L404.242 354.5L406.142 348.1" stroke="#63737A" stroke-width="1.8" stroke-miterlimit="10" stroke-linecap="round" stroke-linejoin="round"/>
        <path d="M391.542 335.3C390.942 335.5 390.343 335.2 390.243 334.6C389.843 332 391.242 329.3 393.842 328.3C396.442 327.3 399.343 328.3 400.743 330.6C401.043 331.1 400.843 331.8 400.243 332L391.542 335.3Z" fill="#6DAFA7"/>
        <path d="M425.242 345.1C425.642 345.6 426.342 345.7 426.742 345.2C428.542 343.2 428.742 340.2 427.042 337.9C425.342 335.7 422.442 335 419.942 336.2C419.342 336.5 419.242 337.2 419.642 337.7L425.242 345.1Z" fill="#6DAFA7"/>
        <path d="M413.242 333.1L408.042 331.6C407.142 331.4 406.743 330.5 406.943 329.6C407.143 328.7 408.043 328.3 408.943 328.5L414.142 330C415.042 330.2 415.442 331.1 415.242 332C415.042 332.9 414.142 333.4 413.242 333.1Z" fill="#6DAFA7"/>
        <path d="M409.033 330.962L407.61 335.86L411.355 336.948L412.778 332.05L409.033 330.962Z" fill="#6DAFA7"/>
    </g>
</svg>