<svg width="383" height="265" viewBox="0 0 383 265" fill="none" xmlns="http://www.w3.org/2000/svg">
    <path opacity="0.1" d="M0.840526 118.542H36.3878V166.977H3.43215C3.36211 167.467 3.25704 167.992 3.15198 168.483H36.3528V207.532C36.2827 207.532 36.2477 207.497 36.1777 207.462C35.2321 207.077 34.3215 206.692 33.3759 206.272C33.1658 206.166 32.9907 206.096 32.7805 205.991C31.835 205.536 30.9244 205.081 29.9788 204.59C29.6636 204.415 29.3134 204.24 28.9982 204.065C23.8149 201.158 19.087 197.516 15.0244 193.173C14.8843 193.068 14.7793 192.928 14.6742 192.823C14.1138 192.193 13.5535 191.597 12.9931 190.932C12.783 190.687 12.6079 190.477 12.3978 190.231C11.7674 189.461 11.137 188.655 10.5416 187.85C10.4365 187.745 10.3665 187.605 10.2614 187.5C7.80989 184.138 5.81364 180.46 4.23766 176.608C4.20263 176.503 4.13259 176.363 4.09757 176.258C3.60726 175.032 3.187 173.806 2.80176 172.51C2.62665 171.985 2.48656 171.46 2.34647 170.899C2.31145 170.724 2.2414 170.584 2.20638 170.409C0.245153 162.669 0 154.579 0 146.559C0 145.613 0 144.703 0 143.757C0.035022 140.465 0.0700436 137.208 0.105066 133.951C0.140088 133.111 0.140088 132.27 0.17511 131.43C0.210132 129.293 0.280175 127.122 0.385241 124.986C0.420263 124.39 0.420263 123.795 0.455285 123.199C0.455285 122.849 0.490307 122.499 0.525329 122.184C0.665417 120.993 0.73546 119.767 0.840526 118.542Z" fill="#47B4AC"/>
    <path opacity="0.1" d="M71.585 73.398V117.035H44.8633V73.398H48.6456V58.6187H64.3004V73.398H71.585Z" fill="#47B4AC"/>
    <path opacity="0.1" d="M71.585 118.542H44.8633V166.977H71.585V118.542Z" fill="#47B4AC"/>
    <path opacity="0.1" d="M44.8633 168.483H71.585V208.758C68.433 209.669 65.211 210.334 61.954 210.789C61.6738 210.824 61.4286 210.859 61.1485 210.894C60.7632 210.929 60.378 211 59.9927 211L58.802 211.105H58.6969L58.1716 211.14H57.9965C57.7864 211.14 57.5762 211.175 57.3661 211.175H57.3311C57.0159 211.175 56.7357 211.21 56.4205 211.21H56.0703C55.7551 211.21 55.4749 211.21 55.1597 211.21H54.4943H53.969C53.7588 211.21 53.5137 211.21 53.3035 211.175C52.9533 211.175 52.5681 211.14 52.2179 211.105L51.5524 211.07C51.2723 211.035 50.9921 211.035 50.7119 211C50.1165 210.964 49.5562 210.894 48.9608 210.789L48.2604 210.684L47.9102 210.649C47.3148 210.544 46.7544 210.474 46.1591 210.369C45.7388 210.299 45.2835 210.194 44.8633 210.124V168.483Z" fill="#47B4AC"/>
    <path opacity="0.1" d="M238.64 68.2498H216.611V117.07H238.64V68.2498Z" fill="#47B4AC"/>
    <path opacity="0.1" d="M238.639 118.542V166.977H129.266V146.104H187.507V158.432H216.611V118.542H238.639Z" fill="#47B4AC"/>
    <path opacity="0.1" d="M238.99 220.42C238.885 220.42 238.745 220.42 238.64 220.385V252.185C234.682 251.87 230.76 251.414 226.837 250.819C209.186 248.262 191.955 243.219 175.67 235.935C170.977 233.798 166.354 231.522 161.872 229C154.342 224.833 147.127 220.105 140.298 214.886C138.582 213.556 136.866 212.225 135.22 210.859C134.064 209.913 132.908 208.933 131.753 207.952C130.947 207.287 130.142 206.656 129.301 206.026V168.482H216.366C216.296 168.272 216.261 168.027 216.191 167.817C216.261 168.027 216.331 168.272 216.366 168.482H238.675V220.42C238.745 220.42 238.885 220.42 238.99 220.42Z" fill="#47B4AC"/>
    <path opacity="0.1" d="M296.111 64.6071H281.752V60.1593H288.196V46.886C288.756 47.0961 289.317 47.3063 289.877 47.5164V60.1593H296.146L296.111 64.6071Z" fill="#47B4AC"/>
    <path opacity="0.1" d="M330.712 117.035H260.213C260.213 117.035 260.213 117.035 260.248 117.035H260.213H247.15V68.2499H250.862V104.322H267.778V82.9591H281.786V66.1135H296.145V82.9941H310.119V104.358H330.747L330.712 117.035Z" fill="#47B4AC"/>
    <path opacity="0.1" d="M247.115 118.542V166.977H330.712V118.542H247.115ZM353.406 224.028L353.512 185.679H330.712V168.518H247.115V252.746C253.979 253.026 260.843 252.956 267.673 252.5H267.778C271.035 252.29 274.292 251.975 277.549 251.59H277.619C294.885 249.594 311.8 245.076 327.77 238.176" fill="#47B4AC"/>
    <path opacity="0.1" d="M363.458 168.483H382.965C382.79 178.324 380.828 187.99 376.486 196.921C372.878 204.345 367.905 210.824 361.987 216.463V185.644H363.458V168.483Z" fill="#47B4AC"/>
    <path opacity="0.1" d="M383 166.977H363.493V126.491H374.034C379.498 139.274 382.965 153.283 383 166.977Z" fill="#47B4AC"/>
    <path opacity="0.1" d="M238.64 81.8032H226.837V97.1078H238.64V81.8032Z" fill="#47B4AC"/>
    <path opacity="0.1" d="M238.64 113.533H226.837V117.07H238.64V113.533Z" fill="#47B4AC"/>
    <path opacity="0.1" d="M238.64 118.542H226.837V128.838H238.64V118.542Z" fill="#47B4AC"/>
    <path opacity="0.1" d="M238.64 145.228H226.837V160.533H238.64V145.228Z" fill="#47B4AC"/>
    <path opacity="0.1" d="M238.64 176.958H226.837V192.263H238.64V176.958Z" fill="#47B4AC"/>
    <path opacity="0.1" d="M238.64 220.42C238.745 220.42 238.885 220.42 238.99 220.455C238.885 220.42 238.745 220.42 238.64 220.42V223.992H226.837V208.688H238.64V220.42Z" fill="#47B4AC"/>
    <path opacity="0.1" d="M238.64 240.383V252.185C234.682 251.87 230.76 251.414 226.837 250.819V240.383H238.64V240.383Z" fill="#47B4AC"/>
    <path opacity="0.1" d="M179.873 165.856H129.266V166.977H179.873V165.856Z" fill="#47B4AC"/>
    <path opacity="0.1" d="M179.873 168.483H129.266V172.791H179.873V168.483Z" fill="#47B4AC"/>
    <path opacity="0.1" d="M179.873 186.904H129.266V193.839H179.873V186.904Z" fill="#47B4AC"/>
    <path opacity="0.1" d="M179.873 207.952V214.887H140.298C138.582 213.591 136.866 212.225 135.22 210.859C134.064 209.913 132.908 208.933 131.753 207.987L179.873 207.952Z" fill="#47B4AC"/>
    <path opacity="0.1" d="M179.872 229V235.935H175.705C171.012 233.798 166.389 231.522 161.906 229H179.872Z" fill="#47B4AC"/>
    <path opacity="0.1" d="M277.619 123.234H267.673V133.18H277.619V123.234Z" fill="#47B4AC"/>
    <path opacity="0.1" d="M61.9887 76.8301H52.0425V86.7763H61.9887V76.8301Z" fill="#47B4AC"/>
    <path opacity="0.1" d="M61.9887 99.9444H52.0425V109.891H61.9887V99.9444Z" fill="#47B4AC"/>
    <path opacity="0.1" d="M61.9887 123.094H52.0425V133.04H61.9887V123.094Z" fill="#47B4AC"/>
    <path opacity="0.1" d="M61.9887 146.244H52.0425V156.19H61.9887V146.244Z" fill="#47B4AC"/>
    <path opacity="0.1" d="M61.9887 169.358H52.0425V179.304H61.9887V169.358Z" fill="#47B4AC"/>
    <path opacity="0.1" d="M61.9887 192.507H52.0425V202.454H61.9887V192.507Z" fill="#47B4AC"/>
    <path opacity="0.1" d="M315.653 123.234H305.707V133.18H315.653V123.234Z" fill="#47B4AC"/>
    <path opacity="0.1" d="M277.619 147.819H267.673V157.766H277.619V147.819Z" fill="#47B4AC"/>
    <path opacity="0.1" d="M315.653 147.819H305.707V157.766H315.653V147.819Z" fill="#47B4AC"/>
    <path opacity="0.1" d="M277.619 172.37H267.673V182.316H277.619V172.37Z" fill="#47B4AC"/>
    <path opacity="0.1" d="M315.653 172.37H305.707V182.316H315.653V172.37Z" fill="#47B4AC"/>
    <path opacity="0.1" d="M277.619 196.92H267.673V206.867H277.619V196.92Z" fill="#47B4AC"/>
    <path opacity="0.1" d="M315.653 196.92H305.707V206.867H315.653V196.92Z" fill="#47B4AC"/>
    <path opacity="0.1" d="M277.619 221.506H267.673V231.452H277.619V221.506Z" fill="#47B4AC"/>
    <path opacity="0.1" d="M315.653 221.506H305.707V231.452H315.653V221.506Z" fill="#47B4AC"/>
    <path opacity="0.1" d="M267.673 252.5V246.056H277.654V251.59L267.673 252.5Z" fill="#47B4AC"/>
    <path opacity="0.1" d="M0.840526 118.542H36.3878V166.977H3.43215C3.36211 167.467 3.25704 167.992 3.15198 168.483H36.3528V207.532C36.2827 207.532 36.2477 207.497 36.1777 207.462C35.2321 207.077 34.3215 206.692 33.3759 206.272C33.1658 206.166 32.9907 206.096 32.7805 205.991C31.835 205.536 30.9244 205.081 29.9788 204.59C29.6636 204.415 29.3134 204.24 28.9982 204.065C23.8149 201.158 19.087 197.516 15.0244 193.173C14.8843 193.068 14.7793 192.928 14.6742 192.823C14.1138 192.193 13.5535 191.597 12.9931 190.932C12.783 190.687 12.6079 190.477 12.3978 190.231C11.7674 189.461 11.137 188.655 10.5416 187.85C10.4365 187.745 10.3665 187.605 10.2614 187.5C7.80989 184.138 5.81364 180.46 4.23766 176.608C4.20263 176.503 4.13259 176.363 4.09757 176.258C3.60726 175.032 3.187 173.806 2.80176 172.51C2.62665 171.985 2.48656 171.46 2.34647 170.899C2.31145 170.724 2.2414 170.584 2.20638 170.409C0.245153 162.669 0 154.579 0 146.559C0 145.613 0 144.703 0 143.757C0.035022 140.465 0.0700436 137.208 0.105066 133.951C0.140088 133.111 0.140088 132.27 0.17511 131.43C0.210132 129.293 0.280175 127.122 0.385241 124.986C0.420263 124.39 0.420263 123.795 0.455285 123.199C0.455285 122.849 0.490307 122.499 0.525329 122.184C0.665417 120.993 0.73546 119.767 0.840526 118.542Z" fill="#47B4AC"/>
    <path opacity="0.1" d="M36.3529 64.6074H16.8807C20.0677 59.6343 23.4999 54.8713 27.2472 50.3535C30.154 46.7813 33.2009 43.3141 36.3879 39.987L36.3529 64.6074Z" fill="#47B4AC"/>
    <path opacity="0.1" d="M36.3526 66.0784V117.035H0.945435C0.945435 116.895 0.980457 116.72 0.980457 116.58C1.01548 116.195 1.0505 115.775 1.08552 115.389C1.12054 114.934 1.15557 114.444 1.22561 113.988C1.29566 113.533 1.33068 112.973 1.3657 112.447C1.40072 111.922 1.47076 111.432 1.50579 110.907C1.54081 110.381 1.61085 109.891 1.6809 109.401C1.75094 108.91 1.78596 108.385 1.85601 107.895C1.92605 107.474 1.96107 107.054 2.03112 106.634C2.10116 106.038 2.20623 105.443 2.27627 104.848C2.27627 104.743 2.31129 104.673 2.31129 104.568C2.94169 100.26 3.81724 95.9872 4.90292 91.7845C6.05864 87.3718 7.52956 83.0291 9.31568 78.8264C11.2069 74.4137 13.4133 70.141 15.9348 66.0784H36.3526V66.0784Z" fill="#47B4AC"/>
    <path opacity="0.1" d="M44.8633 118.541V166.977H120.791V118.541H44.8633ZM44.8633 168.483V210.089C45.2835 210.194 45.7388 210.264 46.1591 210.334C46.7194 210.439 47.3148 210.544 47.9102 210.649L48.2604 210.684C48.5055 210.719 48.7157 210.754 48.9608 210.789C49.5562 210.859 50.1165 210.929 50.7119 210.999C50.9921 211.034 51.2723 211.034 51.5524 211.069L52.2179 211.104C52.6031 211.139 52.9533 211.139 53.3035 211.174C53.5137 211.174 53.7588 211.174 53.969 211.209C54.1791 211.244 54.3192 211.209 54.4943 211.209H55.1597C55.4749 211.209 55.7551 211.209 56.0703 211.209H56.4555C56.7707 211.209 57.0509 211.209 57.3661 211.174H57.4011C57.6112 211.174 57.8214 211.174 58.0315 211.139C58.1016 211.139 58.1366 211.139 58.2066 211.139C58.3817 211.139 58.5568 211.139 58.7319 211.104C58.767 211.104 58.802 211.104 58.837 211.104C59.2223 211.069 59.6075 211.034 60.0278 210.999C60.448 210.964 60.7982 210.929 61.1835 210.894L61.989 210.789C65.246 210.334 68.433 209.633 71.62 208.758C78.6945 206.797 85.6288 204.03 92.7032 201.999C101.844 199.372 111.965 198.111 120.791 201.298V168.483H44.8633V168.483ZM120.756 64.6074V0.0969852C112.456 -0.00808068 104.155 0.972534 96.1004 3.00381C76.8733 7.83684 59.6075 18.3084 44.8633 31.6868V64.6074H48.6806V66.1134H44.8633V117.07H120.791V66.0783H64.3004V64.5724L120.756 64.6074ZM218.292 42.8238C213.529 42.6487 208.801 41.1427 204.528 38.8313C196.368 34.3835 189.819 27.5192 182.535 21.7406C167.37 9.62296 148.563 2.33839 129.266 0.552271V64.6074H237.624L237.904 64.3272L218.292 42.8238ZM228.168 41.0727L238.64 52.5599V38.0608C235.103 38.481 232.056 39.5317 228.168 41.0727ZM238.64 220.42V168.483H216.331C216.261 168.272 216.226 168.027 216.156 167.817C216.226 168.027 216.296 168.272 216.331 168.483H129.266V206.026C130.107 206.656 130.912 207.287 131.718 207.952C132.593 208.653 133.469 209.388 134.309 210.124L135.185 210.824C135.605 211.174 136.025 211.525 136.446 211.875C137.286 212.54 138.127 213.241 139.002 213.906C139.423 214.256 139.843 214.571 140.298 214.887C147.127 220.105 154.342 224.833 161.872 229C163.553 229.946 165.269 230.857 166.985 231.732C168.141 232.328 169.261 232.888 170.417 233.448C172.168 234.289 173.919 235.129 175.67 235.9C178.332 237.091 175.67 235.9 175.67 235.9C191.955 243.219 209.151 248.228 226.802 250.784C230.725 251.344 234.647 251.8 238.605 252.15L238.64 220.42H238.955H238.64ZM129.266 66.0783V117.035H238.64V66.0783H129.266ZM129.266 118.541V167.012H238.64V118.541H129.266ZM247.115 37.9557V54.1709L260.458 39.4967C256.046 38.7962 251.598 38.2709 247.115 37.9557ZM247.115 118.541V166.977H353.512V118.541H247.115ZM353.126 224.273L353.512 168.483H247.115V252.745C253.979 253.026 260.844 252.956 267.673 252.5H267.778C271.035 252.29 274.292 251.975 277.549 251.59H277.619C294.885 249.593 311.801 245.076 327.771 238.176L353.126 224.273ZM374.035 126.491C373.614 125.546 373.229 124.635 372.774 123.689C371.968 121.938 371.163 120.222 370.287 118.541H361.987V166.977H382.965C382.965 153.283 379.498 139.274 374.035 126.491ZM361.987 168.483V216.463C367.906 210.789 372.879 204.31 376.486 196.92C380.794 187.99 382.79 178.324 382.965 168.483H361.987ZM361.987 104.427V117.035H369.517C367.24 112.693 364.719 108.49 361.987 104.427ZM289.842 47.4817C289.281 47.2716 288.721 47.0614 288.161 46.8513C282.277 44.6799 276.288 42.8938 270.195 41.4579L249.742 63.907L249.356 64.3272L249.637 64.6074H322.412C312.256 57.6381 301.329 51.8594 289.842 47.4817ZM324.549 66.0783H248.621L247.115 67.4442V117.035H260.213H353.512V93.0102C345.071 82.8188 335.335 73.7482 324.549 66.0783Z" fill="#47B4AC"/>
    <path opacity="0.1" d="M36.3526 91.7844V117.035H0.945435C0.945435 116.895 0.980457 116.72 0.980457 116.58C1.01548 116.195 1.0505 115.774 1.08552 115.389C1.12054 114.934 1.15557 114.444 1.22561 113.988C1.29566 113.533 1.33068 112.973 1.3657 112.447C1.40072 111.922 1.47076 111.432 1.50579 110.906C1.54081 110.381 1.61085 109.891 1.6809 109.4C1.75094 108.91 1.78596 108.385 1.85601 107.894C1.92605 107.474 1.96107 107.054 2.03112 106.634C2.10116 106.038 2.20623 105.443 2.27627 104.848C2.27627 104.742 2.31129 104.672 2.31129 104.567C2.94169 100.26 3.81724 95.987 4.90292 91.7844H36.3526Z" fill="#47B4AC"/>
    <path opacity="0.1" d="M2.27637 104.603V110.311H36.3527V104.603H2.27637ZM5.6735 109.926H2.87174V104.953H5.6735V109.926ZM9.07063 109.926H6.26887V104.953H9.07063V109.926ZM12.4678 109.926H9.666V104.953H12.4678V109.926ZM15.8649 109.926H13.0631V104.953H15.8649V109.926ZM19.227 109.926H16.4252V104.953H19.227V109.926ZM22.6241 109.926H19.8224V104.953H22.6241V109.926ZM26.0212 109.926H23.2195V104.953H26.0212V109.926ZM29.4184 109.926H26.6166V104.953H29.4184V109.926ZM32.8155 109.926H30.0138V104.953H32.8155V109.926ZM36.2126 109.926H33.4109V104.953H36.2126V109.926Z" fill="#47B4AC"/>
    <path opacity="0.1" d="M2.27637 121.168V126.877H36.3527V121.168H2.27637ZM5.6735 126.526H2.87174V121.553H5.6735V126.526ZM9.07063 126.526H6.26887V121.553H9.07063V126.526ZM12.4678 126.526H9.666V121.553H12.4678V126.526ZM15.8649 126.526H13.0631V121.553H15.8649V126.526ZM19.227 126.526H16.4252V121.553H19.227V126.526ZM22.6241 126.526H19.8224V121.553H22.6241V126.526ZM26.0212 126.526H23.2195V121.553H26.0212V126.526ZM29.4184 126.526H26.6166V121.553H29.4184V126.526ZM32.8155 126.526H30.0138V121.553H32.8155V126.526ZM36.2126 126.526H33.4109V121.553H36.2126V126.526Z" fill="#47B4AC"/>
    <path opacity="0.1" d="M2.27637 137.768V143.477H36.3527V137.768H2.27637ZM5.6735 143.092H2.87174V138.118H5.6735V143.092ZM9.07063 143.092H6.26887V138.118H9.07063V143.092ZM12.4678 143.092H9.666V138.118H12.4678V143.092ZM15.8649 143.092H13.0631V138.118H15.8649V143.092ZM19.227 143.092H16.4252V138.118H19.227V143.092ZM22.6241 143.092H19.8224V138.118H22.6241V143.092ZM26.0212 143.092H23.2195V138.118H26.0212V143.092ZM29.4184 143.092H26.6166V138.118H29.4184V143.092ZM32.8155 143.092H30.0138V138.118H32.8155V143.092ZM36.2126 143.092H33.4109V138.118H36.2126V143.092Z" fill="#47B4AC"/>
    <path opacity="0.1" d="M2.27637 154.334V160.042H36.3527V154.334H2.27637ZM5.6735 159.692H2.87174V154.719H5.6735V159.692ZM9.07063 159.692H6.26887V154.719H9.07063V159.692ZM12.4678 159.692H9.666V154.719H12.4678V159.692ZM15.8649 159.692H13.0631V154.719H15.8649V159.692ZM19.227 159.692H16.4252V154.719H19.227V159.692ZM22.6241 159.692H19.8224V154.719H22.6241V159.692ZM26.0212 159.692H23.2195V154.719H26.0212V159.692ZM29.4184 159.692H26.6166V154.719H29.4184V159.692ZM32.8155 159.692H30.0138V154.719H32.8155V159.692ZM36.2126 159.692H33.4109V154.719H36.2126V159.692Z" fill="#47B4AC"/>
    <path opacity="0.1" d="M2.45111 170.934C2.5912 171.459 2.73129 172.02 2.9064 172.545V171.319H5.70815V176.257H4.20221C4.23723 176.363 4.30727 176.503 4.3423 176.608H36.3874V170.934H2.45111ZM9.10528 176.257H6.30353V171.284H9.10528V176.257ZM12.5024 176.257H9.70065V171.284H12.5024V176.257ZM15.8645 176.257H13.0628V171.284H15.8645V176.257ZM19.2616 176.257H16.4599V171.284H19.2616V176.257ZM22.6588 176.257H19.857V171.284H22.6588V176.257ZM26.0559 176.257H23.2542V171.284H26.0559V176.257ZM29.453 176.257H26.6513V171.284H29.453V176.257ZM32.8502 176.257H30.0484V171.284H32.8502V176.257ZM36.2473 176.257H33.4455V171.284H36.2473V176.257Z" fill="#47B4AC"/>
    <path opacity="0.1" d="M10.3314 187.499C10.4364 187.605 10.5065 187.745 10.6115 187.85H12.4677V190.231L13.0631 190.932V187.815H15.8648V192.823H14.7091C14.8142 192.928 14.9192 193.068 15.0593 193.173H36.3527V187.464H10.3314V187.499ZM19.262 192.858H16.4602V187.85H19.262V192.858ZM22.6591 192.858H19.8573V187.85H22.6591V192.858ZM26.0562 192.858H23.2545V187.85H26.0562V192.858ZM29.4183 192.858H26.6166V187.85H29.4183V192.858ZM32.8155 192.858H30.0137V187.85H32.8155V192.858ZM36.2126 192.858H33.4108V187.85H36.2126V192.858Z" fill="#47B4AC"/>
    <path opacity="0.1" d="M29.0333 204.1C29.3485 204.275 29.6987 204.45 30.0139 204.625V204.45H32.8156V206.026C33.0258 206.131 33.2009 206.201 33.411 206.306V204.45H36.2128V207.497C36.2828 207.532 36.3178 207.532 36.3879 207.567V204.135H29.0333V204.1Z" fill="#47B4AC"/>
    <path opacity="0.1" d="M238.639 220.42H238.99H238.639ZM216.12 167.817C216.19 168.027 216.26 168.272 216.295 168.482C216.26 168.272 216.19 168.027 216.12 167.817ZM48.6804 64.6074V66.1133H64.3352V64.6074H48.6804ZM238.639 220.42H238.99H238.639ZM216.12 167.817C216.19 168.027 216.26 168.272 216.295 168.482C216.26 168.272 216.19 168.027 216.12 167.817ZM238.639 220.42H238.99H238.639ZM216.12 167.817C216.19 168.027 216.26 168.272 216.295 168.482C216.26 168.272 216.19 168.027 216.12 167.817Z" fill="#47B4AC"/>
    <path opacity="0.8" d="M171.993 204.66H75.9976L33.9363 163.054C31.2396 160.392 31.5548 155.944 34.6017 153.668L36.738 152.092L121.806 153.353L171.993 204.66Z" fill="#47B4AC"/>
    <path d="M76.663 205.745L68.748 211.629L32.4653 162.843C30.469 160.147 31.0294 156.329 33.7261 154.333L36.773 152.056L76.663 205.745Z" fill="#9DDEDA"/>
    <path d="M34.0415 211.629H269.984C272.891 211.629 275.238 209.283 275.238 206.376C275.238 203.469 272.891 201.123 269.984 201.123H34.0415C31.1347 201.123 28.7882 203.469 28.7882 206.376C28.8232 209.283 31.1697 211.629 34.0415 211.629Z" fill="#9DDEDA"/>
    <path d="M72.5307 211.629H68.7483V259.364H72.5307V211.629Z" fill="#9DDEDA"/>
    <path d="M322.972 211.629H319.19V259.364H322.972V211.629Z" fill="#A9C2FF"/>
    <path d="M265.746 211.629H261.964V259.364H265.746V211.629Z" fill="#9DDEDA"/>
    <path d="M139.002 211.629H135.22V259.364H139.002V211.629Z" fill="#9DDEDA"/>
    <path d="M243.158 242.098H68.7483V246.091H243.158V242.098Z" fill="#9DDEDA"/>
    <path d="M322.973 242.098H239.375V246.091H322.973V242.098Z" fill="#9DDEDA"/>
    <path d="M72.2795 263.341C74.4543 262.425 75.4746 259.92 74.5586 257.745C73.6425 255.57 71.137 254.55 68.9622 255.466C66.7875 256.382 65.7671 258.887 66.6832 261.062C67.5992 263.237 70.1048 264.257 72.2795 263.341Z" fill="#3A3A3A"/>
    <path d="M73.0252 259.462C73.0597 258.147 72.0218 257.053 70.707 257.018C69.3921 256.984 68.2982 258.022 68.2636 259.337C68.2291 260.652 69.267 261.745 70.5818 261.78C71.8967 261.815 72.9906 260.777 73.0252 259.462Z" fill="#9DDEDA"/>
    <path d="M132.838 259.399C132.838 257.053 134.765 255.126 137.111 255.126C139.458 255.126 141.384 257.053 141.384 259.399C141.384 261.745 139.458 263.672 137.111 263.672C134.73 263.672 132.838 261.745 132.838 259.399Z" fill="#3A3A3A"/>
    <path d="M139.51 259.437C139.544 258.122 138.506 257.028 137.192 256.993C135.877 256.959 134.783 257.997 134.748 259.312C134.714 260.626 135.751 261.72 137.066 261.755C138.381 261.79 139.475 260.752 139.51 259.437Z" fill="#9DDEDA"/>
    <path d="M265.506 263.347C267.686 262.444 268.721 259.944 267.818 257.764C266.915 255.584 264.415 254.549 262.235 255.452C260.055 256.355 259.02 258.854 259.923 261.034C260.826 263.215 263.325 264.25 265.506 263.347Z" fill="#3A3A3A"/>
    <path d="M261.474 259.399C261.474 258.068 262.525 257.017 263.856 257.017C265.187 257.017 266.237 258.068 266.237 259.399C266.237 260.73 265.187 261.78 263.856 261.78C262.525 261.78 261.474 260.695 261.474 259.399Z" fill="#A9C2FF"/>
    <path d="M37.4387 160.252V203.434H42.727V166.171L37.4387 160.252Z" fill="#9DDEDA"/>
    <path d="M116.973 162.738L137.076 170.338L126.254 172.089L118.794 167.046L116.973 162.738Z" fill="#FFAE73"/>
    <path d="M152.976 201.788C153.747 202.103 165.654 184.942 164.183 180.144C164.113 179.899 138.547 174.961 134.309 173.77C124.959 171.109 114.382 161.653 109.129 160.777C98.2018 158.921 80.0604 169.848 82.9322 179.269C87.2749 193.453 95.5051 201.788 109.339 201.648C109.794 201.648 152.101 201.473 152.976 201.788Z" fill="#FF912B"/>
    <path d="M99.3923 169.112C100.933 168.377 102.509 167.221 103.14 165.61C103.77 164.069 102.824 162.563 101.283 162.283C100.618 162.143 99.2522 160.742 98.6218 160.111C96.2753 157.8 94.8394 156.679 94.8394 156.679L84.5079 156.889C85.7687 157.205 88.7106 163.684 89.3059 167.361C89.9013 170.513 96.4504 170.548 99.3923 169.112Z" fill="#FFAE73"/>
    <path d="M98.6573 160.077C97.1163 157.52 96.1007 155.979 96.1007 155.979L86.7148 159.026C89.3064 160.952 92.7736 162.178 98.6573 160.077Z" fill="#F48F4E"/>
    <path d="M99.1825 157.8C99.1825 157.8 87.9054 163.579 84.4032 156.504C80.901 149.43 77.1187 145.402 84.1581 141.41C91.2325 137.417 93.9642 139.449 95.7153 141.515C97.4664 143.581 102.019 156.119 99.1825 157.8Z" fill="#FFAE73"/>
    <path d="M85.9791 153.878C85.9791 153.878 83.8777 152.792 84.4731 151.496C85.0685 150.201 86.0841 151.566 86.7846 151.286C87.485 151.006 88.1154 148.485 87.5901 146.523C87.0647 144.562 94.9447 145.298 97.4312 143.511C99.9178 141.725 101.179 137.207 96.2055 136.612C93.2636 136.262 78.5544 134.231 75.6826 141.935C72.0053 151.742 82.8621 157.345 84.368 158.256C85.874 159.166 86.3993 158.571 86.3993 158.571C86.3993 158.571 87.485 155.314 85.9791 153.878Z" fill="#5B5B5B"/>
    <path d="M106.362 160.567C106.362 160.567 111.93 159.692 121.526 163.229C121.526 163.229 120.861 165.996 117.884 167.642C114.907 169.288 106.362 160.567 106.362 160.567Z" fill="#FF912B"/>
    <path d="M239.27 182.631C239.27 182.631 189.854 183.226 166.915 176.257C143.976 169.288 125.344 169.743 125.344 169.743C125.344 169.743 110.354 185.363 106.712 199.617C106.467 200.527 106.362 201.438 106.362 202.383V219.054C106.362 219.054 134.169 212.225 167.44 219.054C193.006 224.307 237.449 219.054 237.449 219.054L239.27 182.631Z" fill="#9DDEDA"/>
    <path d="M88.3606 188.375C88.3606 188.375 116.903 198.706 122.717 197.655C128.531 196.605 143.8 180.18 143.8 180.18L140.894 178.078L121.106 188.865C121.106 188.865 103 179.269 95.2249 174.366C91.0223 171.739 86.0492 187.429 88.3606 188.375Z" fill="#FFAE73"/>
    <path d="M107.658 181.475C106.152 186.799 103.42 191.457 96.8362 195.204C95.7505 195.834 94.91 196.745 94.0345 195.904C90.9175 192.927 84.5085 186.448 82.8975 179.234C82.7574 178.568 83.5279 177.203 84.0182 176.712C85.9094 174.856 90.8825 171.179 95.0151 172.23C98.6574 173.14 104.436 176.502 107.483 178.428C108.499 179.094 108.008 180.25 107.658 181.475Z" fill="#FF912B"/>
    <path d="M140.859 178.078C140.859 178.078 142.049 175.031 142.364 174.261C142.68 173.49 145.026 171.494 145.131 172.054C145.236 172.615 144.326 173.84 144.676 173.875C145.026 173.91 146.462 171.319 147.408 171.319C148.388 171.354 147.828 174.716 147.513 176.222C147.162 177.763 143.8 180.144 143.8 180.144L140.859 178.078Z" fill="#FFAE73"/>
    <path opacity="0.8" d="M321.467 211.629H235.173C233.072 211.629 231.356 209.913 231.356 207.812V173.526C231.356 171.424 233.072 169.708 235.173 169.708H321.432C323.533 169.708 325.249 171.424 325.249 173.526V207.812C325.249 209.913 323.533 211.629 321.467 211.629Z" fill="#47B4AC"/>
    <path d="M308.963 114.934C308.963 114.934 301.189 116.299 299.438 120.887C297.686 125.475 287.775 199.442 287.775 199.442C287.775 199.442 292.678 203.329 303.22 201.928C313.762 200.527 308.963 114.934 308.963 114.934Z" fill="#9DDEDA"/>
    <path d="M297.442 260.59C297.407 261.921 297.231 263.182 296.776 263.672H277.514C277.759 262.972 278.46 261.921 280.421 261.606C282.662 261.256 286.164 260.17 288.231 257.999C288.966 257.228 289.492 256.318 289.737 255.267C290.647 251.24 297.231 256.493 297.231 256.493C297.231 256.493 297.477 258.629 297.442 260.59Z" fill="#3A3A3A"/>
    <path d="M327.105 260.59C327.07 261.921 326.895 263.182 326.439 263.672H307.177C307.422 262.972 308.123 261.921 310.084 261.606C312.325 261.256 315.828 260.17 317.894 257.999C318.629 257.228 319.155 256.318 319.4 255.267C320.31 251.24 326.895 256.493 326.895 256.493C326.895 256.493 327.175 258.629 327.105 260.59Z" fill="#3A3A3A"/>
    <path d="M289.141 258.629C291.277 259.33 295.41 261.396 298.037 260.415C299.718 259.785 309.174 232.468 309.769 220.525C309.804 219.65 309.979 218.459 310.259 216.953C310.82 213.871 311.8 209.633 312.921 204.976C315.933 192.438 320.03 176.783 319.925 171.775C319.785 164 296.776 170.129 296.776 170.129C296.776 170.129 295.2 176.503 294.885 185.748C294.254 204.065 292.538 235.024 287.88 256.528C287.635 257.438 288.231 258.349 289.141 258.629Z" fill="#2E2E44"/>
    <path d="M305.111 171.809L316.213 258.279C316.213 258.279 323.358 259.224 327.525 258.209C327.525 258.209 330.362 213.381 330.047 202.033C329.767 190.686 332.603 171.669 329.381 169.568C326.159 167.467 305.111 171.809 305.111 171.809Z" fill="#3F3D56"/>
    <path d="M330.957 118.961C330.957 118.961 318.174 110.696 308.998 114.934C307.527 115.599 305.881 117.491 304.691 118.821C301.364 122.464 294.885 180.53 294.885 180.53C294.885 180.53 313.271 186.764 330.957 178.429V118.961Z" fill="white"/>
    <path d="M308.263 114.724C308.263 114.724 295.305 120.047 293.554 124.11C291.803 128.172 286.094 153.213 286.094 156.155C286.094 159.097 296.006 156.82 297.617 152.092C298.947 148.17 303.43 136.087 305.777 128.452L308.263 114.724Z" fill="#9DDEDA"/>
    <path d="M310.925 118.751C313.762 119.312 317.894 118.716 320.941 116.72C319.575 113.428 319.015 110.836 318.805 109.19C318.805 109.085 318.77 109.015 318.77 108.945C318.665 108.07 318.7 107.474 318.735 107.229H311.415C311.415 107.229 309.419 108.14 309.419 108.77C309.419 109.12 309.419 109.436 309.419 109.751C309.419 110.591 309.384 111.327 309.314 111.957C309.174 114.023 308.929 114.969 308.929 114.969C308.929 114.969 308.088 118.191 310.925 118.751Z" fill="#FFAE73"/>
    <path d="M309.349 111.922C314.883 113.008 318.105 109.961 318.805 109.19C318.91 109.085 318.945 109.015 318.945 109.015C318.875 108.98 318.84 108.945 318.77 108.945C316.704 108.105 312.046 108.77 309.419 109.716C309.419 110.556 309.384 111.292 309.349 111.922Z" fill="#EE8C4D"/>
    <path d="M320.626 106.003C319.646 111.327 312.781 111.152 309.804 110.836C308.964 110.731 308.439 110.626 308.439 110.626C307.493 110.381 306.968 108.875 306.723 106.949C306.232 103.097 306.863 97.458 307.493 96.0221C308.474 93.8507 310.33 91.5042 317.229 93.1853C324.163 94.8663 321.887 99.174 320.626 106.003Z" fill="#FFAE73"/>
    <path d="M307.248 93.01C308.193 91.7142 310.19 90.1032 312.011 89.1226C315.933 87.0213 320.941 89.1926 320.941 89.1926C326.58 91.6792 328.086 95.9869 325.074 102.746C321.922 109.856 318.875 109.085 318.875 109.085C318.875 109.085 319.505 108.7 319.47 106.458C319.47 106.318 319.47 106.213 319.47 106.143C319.435 105.688 319.61 105.233 319.926 104.917C320.626 104.287 320.976 102.396 320.381 101.871C319.68 101.24 318.665 102.011 318.35 102.606C318.069 103.026 317.579 103.166 317.124 102.886C315.373 101.766 316.493 99.5591 314.812 98.1933C313.131 96.8274 309.734 97.9831 307.213 96.8975C303.921 95.6367 306.547 94.0257 307.248 93.01Z" fill="#5B5B5B"/>
    <path d="M306.477 204.87C307.598 205.151 308.683 205.396 309.804 205.571C310.785 205.746 311.73 205.851 312.711 205.956C318.174 206.446 323.673 205.676 330.117 203.82C331.553 203.4 333.058 202.944 334.599 202.419C334.775 202.349 334.179 185.363 333.514 167.852C333.444 166.031 333.374 164.21 333.304 162.424C333.269 161.653 333.234 160.883 333.199 160.147C332.568 144.633 331.973 130.624 331.833 129.888C331.553 128.172 331.272 126.736 330.957 125.476C330.082 121.798 328.996 119.802 326.614 118.051C326.369 117.876 324.478 116.93 322.832 116.09C321.431 115.389 320.205 114.794 320.205 114.794C319.645 115.074 318.98 116.335 318.314 118.086C317.053 121.343 315.653 126.351 314.707 130.099C314.707 130.099 314.707 130.099 314.707 130.134C314.077 132.55 313.656 134.441 313.516 134.967C313.306 135.877 313.026 137.628 312.676 140.045C312.22 143.302 311.695 147.715 311.135 152.723C311.065 153.248 311.03 153.773 310.96 154.299C310.89 154.894 310.82 155.525 310.749 156.12C310.714 156.33 310.714 156.505 310.679 156.715C310.469 158.712 310.224 160.743 310.014 162.844C309.839 164.56 307.212 165.821 307.037 167.572C306.932 168.588 306.722 178.079 306.442 181.091C306.232 183.157 306.372 203.855 306.477 204.87Z" fill="#9DDEDA"/>
    <path d="M325.354 136.087C325.354 136.122 325.809 151.777 314.042 153.668C302.274 155.559 310.084 156.085 310.084 156.085C310.084 156.085 332.218 155.139 332.603 154.544C332.954 153.948 325.354 136.087 325.354 136.087Z" fill="#7FCFCF"/>
    <path d="M315.408 160.393C315.408 160.393 315.618 160.533 316.038 160.813C316.038 160.813 316.038 160.813 316.073 160.813C317.859 161.968 323.183 165.085 330.958 167.187C331.763 167.397 332.604 167.607 333.479 167.817C333.409 165.996 333.339 164.175 333.269 162.389C334.285 162.319 335.265 162.179 336.176 161.969C336.141 161.723 336.106 161.478 336.071 161.268C335.09 160.848 334.11 160.463 333.164 160.112C332.393 159.797 331.658 159.517 330.958 159.272C327.771 158.046 325.424 157.241 325.424 157.241L316.003 160.217L315.408 160.393Z" fill="#7FCFCF"/>
    <path d="M312.886 160.112C312.886 160.112 314.112 160.427 316.038 160.813C316.038 160.813 316.038 160.813 316.073 160.813C319.645 161.513 325.599 162.529 330.957 162.459C331.728 162.459 332.533 162.424 333.269 162.354C334.285 162.284 335.265 162.144 336.176 161.933C338.137 161.513 339.748 160.813 340.834 159.727C348.784 151.637 336.491 122.569 333.899 119.767C330.887 116.475 325.389 115.319 322.342 114.899C322.202 114.899 322.097 114.864 321.992 114.864C320.906 114.724 320.241 114.724 320.206 114.724C320.206 114.724 320.451 115.494 320.836 116.79C320.976 117.28 321.186 117.876 321.361 118.541C323.218 124.67 326.825 136.683 328.401 143.442C328.996 145.928 329.276 147.714 329.136 148.24C328.506 150.551 322.097 151.742 318.034 152.267C316.353 152.477 315.057 152.583 314.777 152.618C314.742 152.618 314.742 152.618 314.707 152.618L314.462 153.598L313.902 155.91L313.341 158.186L312.886 160.112Z" fill="#9DDEDA"/>
    <path d="M290.752 174.051L318.034 172.895L312.501 138.889L285.184 140.045L290.752 174.051Z" fill="#2E2E44"/>
    <path d="M314.742 152.617C314.742 152.617 309.419 152.232 309.174 153.493C308.543 156.365 313.727 158.746 315.408 158.571C317.089 158.431 315.968 152.407 314.742 152.617Z" fill="#FFAE73"/>
    <path d="M286.69 146.944C286.69 146.944 291.768 145.368 292.328 146.489C293.589 149.15 289.106 152.652 287.425 152.898C285.744 153.143 285.464 147.049 286.69 146.944Z" fill="#FFAE73"/>
    <path d="M319.646 113.043C319.646 113.043 322.167 113.463 323.288 115.074C323.288 115.074 314.638 130.203 314.673 130.063C314.708 129.958 317.509 114.899 319.646 113.043Z" fill="#7FCFCF"/>
    <path d="M309.244 113.253C308.508 113.533 307.107 114.969 306.792 115.774L305.812 128.452C305.812 128.452 307.948 119.171 308.999 114.969C309.244 113.848 309.209 113.533 309.244 113.253Z" fill="#7FCFCF"/>
    <path d="M303.43 139.274C303.43 139.274 303.22 138.329 301.959 138.434C300.733 138.539 293.729 138.889 293.729 138.889C293.729 138.889 292.398 138.854 292.503 139.729L303.43 139.274Z" fill="#D44B40"/>
    <path d="M216.68 98.4385C216.68 98.0182 216.996 93.6405 223.685 93.4304C223.685 93.4304 220.393 93.8156 219.832 95.2515C219.832 95.2515 222.074 93.4654 223.895 94.0607C225.716 94.6211 226.767 97.8081 226.802 98.8588C226.802 99.9094 225.786 103.272 224.665 103.587C224.245 103.692 223.72 103.657 223.265 103.587C223.58 104.077 223.86 104.602 224.175 105.198C226.837 110.661 224.105 115.984 221.829 115.389C220.393 115.004 219.973 117.49 219.973 117.49L205.929 106.143C205.929 106.108 211.077 95.4616 216.68 98.4385Z" fill="#5B5B5B"/>
    <path d="M178.436 166.731C179.592 167.782 182.709 164.21 183.164 163.719C183.199 163.684 183.199 163.649 183.199 163.649L182.254 161.023C182.254 161.023 178.156 160.847 177.491 161.548C176.825 162.213 177.176 165.61 178.436 166.731Z" fill="#FFAE73"/>
    <path d="M182.254 161.023L182.674 163.754C182.674 163.754 182.849 163.754 183.165 163.719C184.145 163.649 186.562 163.509 189.293 163.229C191.885 162.984 194.827 162.599 197.103 162.038C198.399 161.723 199.52 161.338 200.22 160.918C203.162 159.096 208.03 153.598 211.182 148.065C211.287 147.924 211.357 147.784 211.392 147.644C212.443 145.753 213.318 143.862 213.809 142.146C214.089 141.2 214.229 140.29 214.264 139.484C214.334 138.048 214.159 136.858 213.879 135.772C213.494 134.371 212.863 133.285 212.198 132.445C212.093 132.305 212.023 132.165 211.883 132.059C210.797 130.764 209.746 130.238 209.746 130.238C209.326 130.063 208.871 130.203 208.38 130.589C208.31 130.624 208.275 130.694 208.205 130.729C208.135 130.799 208.065 130.869 207.995 130.939V130.974C207.82 131.149 207.645 131.359 207.47 131.604C207.12 132.059 206.804 132.62 206.454 133.25C206.419 133.285 206.419 133.285 206.419 133.32C206.314 133.53 206.209 133.741 206.069 133.986C206.034 134.021 205.999 134.091 205.964 134.126C205.719 134.651 205.474 135.176 205.228 135.737C202.462 141.796 199.485 150.936 197.033 153.668C196.473 154.298 194.792 155.279 192.761 156.295C192.726 156.33 192.691 156.33 192.656 156.365C190.974 157.205 189.048 158.116 187.297 158.851C184.53 160.112 182.254 161.023 182.254 161.023Z" fill="#FFAE73"/>
    <path d="M192.691 156.434C192.831 156.75 193.426 158.15 194.372 159.586C195.142 160.742 196.158 161.933 197.384 162.528C198.294 162.073 199.975 161.408 200.676 160.987C203.232 159.411 206.91 154.999 209.886 150.236C210.342 149.5 210.797 148.765 211.182 148.029C211.287 147.889 211.357 147.749 211.392 147.609C212.443 145.718 213.319 143.827 213.809 142.11L208.415 130.553V130.518C208.38 130.553 208.345 130.588 208.275 130.693C208.135 130.868 207.855 131.184 207.54 131.569C207.19 132.024 206.875 132.584 206.524 133.215C206.489 133.25 206.489 133.25 206.489 133.285C206.384 133.495 206.279 133.705 206.139 133.95C206.104 133.985 206.069 134.055 206.034 134.09C205.789 134.616 205.544 135.141 205.299 135.701C202.532 141.76 199.555 150.901 197.103 153.633C196.543 154.263 194.862 155.244 192.831 156.259C192.726 156.399 192.691 156.434 192.691 156.434Z" fill="#9DDEDA"/>
    <path d="M194.372 159.587C195.142 160.742 196.158 161.933 197.384 162.529C198.294 162.073 199.975 161.408 200.676 160.988C203.232 159.412 206.91 154.999 209.886 150.236C209.781 148.73 201.936 156.435 200.956 157.801C200.185 158.886 196.298 159.377 194.372 159.587Z" fill="#7FCFCF"/>
    <path d="M211.813 259.329L214.789 260.45C214.789 260.45 227.748 242.484 229.324 226.689C229.604 223.852 229.499 221.12 228.903 218.599C228.903 218.599 229.043 217.863 229.254 216.603C229.359 216.007 229.499 215.272 229.639 214.466C230.059 212.05 230.654 208.758 231.285 205.01C232.791 196.36 234.787 185.328 236.328 177.203L235.522 176.958L226.837 174.156L225.051 168.447L218.572 166.731C218.572 166.731 217.136 169.568 215.84 182.912C215.595 184.663 215.385 186.589 215.21 188.69C214.719 195.099 214.684 203.014 215.84 212.085C216.12 214.396 216.506 216.813 216.961 219.264C217.311 221.085 217.346 223.537 217.206 226.339C216.541 239.262 211.813 259.329 211.813 259.329Z" fill="#3F3D56"/>
    <path d="M215.21 188.655L229.253 216.603C229.358 216.007 229.499 215.272 229.639 214.466C230.059 212.05 230.654 208.758 231.285 205.01C232.791 196.36 234.787 185.328 236.328 177.203L235.522 176.958L226.837 174.156L225.051 168.447L218.572 166.731C218.572 166.731 217.136 169.568 215.84 182.912C215.595 184.628 215.35 186.589 215.21 188.655Z" fill="#2E2E44"/>
    <path d="M221.373 170.303L221.689 167.502C227.152 168.937 241.686 163.474 241.686 163.474C241.686 163.474 246.975 168.097 246.274 179.234C245.924 184.662 245.328 207.742 244.663 214.571C244.418 217.058 244.243 218.809 244.138 219.509C244.103 219.719 244.173 219.929 244.313 220.104C245.258 221.716 246.064 223.397 246.694 225.113C253.033 241.993 245.714 262.796 245.714 262.796L243.823 262.026C243.823 262.026 239.655 238.876 236.293 228.685C235.732 226.969 235.172 225.603 234.682 224.762C233.211 222.381 231.845 218.529 230.619 213.906C228.273 205.185 226.382 193.838 225.156 185.118C224.946 185.083 221.373 170.303 221.373 170.303Z" fill="#3F3D56"/>
    <path d="M217.241 137.943C226.592 138.468 224.561 124.495 223.965 124.565C222.81 123.969 220.743 121.063 219.588 116.194L219.167 116.37L212.408 119.557C212.408 119.557 213.109 121.763 213.669 123.864C214.089 125.51 214.369 127.086 214.124 127.542C213.599 127.752 213.284 127.892 213.284 127.892C213.214 128.067 214.755 137.803 217.241 137.943Z" fill="#FFAE73"/>
    <path d="M212.408 119.557C212.408 119.557 213.144 121.763 213.669 123.864C217.626 122.779 218.817 118.611 219.167 116.37L212.408 119.557Z" fill="#F99352"/>
    <path d="M211.602 121.868C211.602 121.868 221.058 119.697 219.587 113.813C218.152 107.964 218.362 103.727 212.268 104.847C206.174 106.003 205.544 108.525 205.579 110.591C205.579 112.692 209.081 122.288 211.602 121.868Z" fill="#FFAE73"/>
    <path d="M205.054 107.299C206.069 105.163 207.26 105.303 208.03 105.653C212.478 101.555 216.821 104.918 216.821 104.918C218.502 108.98 222.144 110.626 222.144 110.626C222.144 110.626 220.708 112.097 216.471 112.097C215.175 112.097 213.879 111.502 212.723 110.696C215 112.973 217.661 114.374 217.661 114.374C212.408 113.358 208.871 107.264 208.486 106.634C208.03 107.299 207.19 108.7 207.12 109.891C207.015 111.502 207.575 114.619 206.665 114.759C206.629 114.654 203.513 110.486 205.054 107.299Z" fill="#5B5B5B"/>
    <path d="M234.717 264.337H249.741C249.741 264.337 250.091 262.061 249.321 260.31C248.585 258.629 247.395 257.893 247.675 255.862C246.729 256.843 245.153 257.928 242.982 257.648C242.702 258.069 241.266 260.38 240.39 261.01C239.375 261.746 234.997 261.501 234.717 264.337Z" fill="#3A3A3A"/>
    <path d="M202.497 264.337H217.521C217.521 264.337 218.082 261.956 217.101 260.31C216.225 258.874 216.576 258.033 217.206 256.843C216.541 257.123 215.63 257.368 214.685 257.333C213.949 257.298 213.144 256.948 212.443 256.562C211.813 257.298 209.046 260.45 208.17 261.045C207.155 261.746 202.777 261.501 202.497 264.337Z" fill="#3A3A3A"/>
    <path d="M208.415 130.554L210.867 163.614L212.373 183.857C214.684 184.592 216.891 185.153 218.992 185.573C219.132 183.892 219.692 181.861 219.692 181.861C219.657 182.911 220.918 184.978 221.654 186.063C240.881 189.145 249.881 180.775 249.881 180.775C249.146 173.35 245.889 158.326 242.001 145.753C241.196 143.126 240.355 140.64 239.515 138.293C237.589 133.04 236.363 130.273 235.347 128.137C233.386 124.075 224.56 124.355 224.56 124.355C222.879 130.484 218.187 134.301 218.187 134.301C215.7 132.83 213.844 127.717 213.844 127.717L208.415 130.554Z" fill="#9DDEDA"/>
    <path d="M222.599 123.199C222.599 123.199 224.21 123.304 224.526 124.32C224.526 124.32 222.424 132.725 218.152 134.266L222.599 123.199Z" fill="#4FB8C0"/>
    <path d="M218.187 134.266C218.187 134.266 214.194 127.647 214.229 126.631C214.229 126.631 212.583 127.262 212.688 128.277C212.653 128.277 216.12 133.776 218.187 134.266Z" fill="#4FB8C0"/>
    <path d="M229.113 131.254C229.008 131.639 214.614 154.613 214.299 159.201C213.984 163.789 220.358 161.198 220.463 160.602C220.568 160.007 229.113 131.254 229.113 131.254Z" fill="#7FCFCF"/>
    <path d="M210.867 163.614L212.373 183.857C232.966 177.938 234.086 134.476 234.086 134.476L221.373 157.45L210.972 163.439C210.972 163.439 210.937 163.509 210.867 163.614Z" fill="#7FCFCF"/>
    <path d="M201.691 165.47L202.497 168.342C202.497 168.342 203.477 168.167 205.053 167.852C205.543 167.747 205.789 167.677 205.789 167.677C207.049 167.432 208.555 167.081 210.201 166.731H210.236C213.038 166.066 216.225 165.26 218.887 164.35C219.132 164.28 219.377 164.174 219.587 164.104C221.163 163.509 222.529 162.914 223.475 162.318C223.58 162.248 223.685 162.178 223.79 162.108C226.417 160.182 229.569 154.543 231.985 148.52C232.335 147.679 232.65 146.839 232.966 146.033C234.086 143.021 234.997 140.044 235.522 137.453C235.873 135.912 236.083 134.511 236.118 133.355C236.153 132.935 236.153 132.55 236.153 132.199C236.118 125.65 231.495 124.985 230.864 125.72C230.094 126.631 229.288 128.172 228.448 129.993C227.152 132.9 225.821 136.682 224.56 140.43C223.86 142.496 223.195 144.527 222.494 146.418C222.109 147.574 221.724 148.66 221.373 149.64C220.673 151.532 220.043 153.073 219.482 154.053C219.132 154.684 218.081 155.559 216.715 156.575C216.365 156.855 215.945 157.1 215.56 157.38C213.283 158.921 210.377 160.672 207.785 162.108C206.524 162.844 205.333 163.474 204.318 164.034C202.777 164.91 201.691 165.47 201.691 165.47Z" fill="#FFAE73"/>
    <path d="M215.595 157.38C215.595 157.38 215.42 162.844 220.533 165.47C226.452 163.334 229.604 154.544 232.02 148.485C232.37 147.644 232.686 146.804 233.001 145.998C234.122 142.986 235.032 140.009 235.557 137.418C235.908 135.877 236.118 134.476 236.153 133.32C236.188 132.9 236.188 132.515 236.188 132.165C236.153 125.615 231.53 124.95 230.899 125.685C230.129 126.596 229.323 128.137 228.483 129.958C227.187 132.865 225.856 136.647 224.596 140.395C223.895 142.461 223.23 144.492 222.529 146.383C222.144 147.539 221.759 148.625 221.409 149.605C220.708 151.497 220.078 153.038 219.517 154.018C219.167 154.649 218.116 155.524 216.751 156.54C216.4 156.82 215.98 157.1 215.595 157.38Z" fill="#9DDEDA"/>
    <path d="M192.656 156.4C192.656 156.437 192.656 156.437 192.693 156.437C192.656 156.4 192.656 156.4 192.656 156.4C192.62 156.364 192.62 156.364 192.656 156.4Z" fill="#9DDEDA"/>
    <path d="M179.53 262.785H183.453L183.453 93.4538H179.53L179.53 262.785Z" fill="white"/>
    <path d="M164.287 121.693C167.755 121.693 170.591 118.856 170.591 115.389V99.454H157.984V115.389C157.984 118.856 160.82 121.693 164.287 121.693Z" fill="white"/>
    <path d="M164.147 120.607C167.054 120.607 169.436 118.226 169.436 115.319V111.852H158.859V115.319C158.859 118.226 161.24 120.607 164.147 120.607Z" fill="#9DDEDA"/>
    <path d="M155.299 96.4859H183.457V93.439H155.299V96.4859Z" fill="white"/>
    <path d="M163.045 100.142H165.216V96.4652H163.045V100.142Z" fill="white"/>
    <path d="M193.006 259.399H170.872V263.672H193.006V259.399Z" fill="white"/>
    <path d="M197.629 161.863H179.522V169.743H197.629V161.863Z" fill="white"/>
    <path d="M196.157 163.334H181.483V167.326H196.157V163.334Z" fill="#9DDEDA"/>
    <path d="M192.971 165.19C194.196 165.19 196.158 165.085 197.313 164.665C197.313 164.665 193.706 164.63 194.476 163.474C194.617 163.264 196.403 163.439 198.434 163.439C199.274 163.439 201.306 164.56 201.201 164.63C202.672 164.455 203.967 164.14 204.423 164.07C204.528 164.035 204.598 164.035 204.598 164.035L205.894 167.782C205.894 167.782 205.613 167.852 205.158 167.957C203.967 168.237 201.516 168.868 199.169 169.778C195.912 171.074 193.531 169.463 192.445 168.342C191.745 167.642 191.219 166.661 191.254 165.996C191.219 165.155 192.2 165.19 192.971 165.19Z" fill="#9DDEDA"/>
</svg>