<svg width="234" height="257" viewBox="0 0 234 257" fill="none" xmlns="http://www.w3.org/2000/svg">
    <path d="M17.611 185.318L1.74942 202.113C-0.583141 204.912 -0.583141 208.644 1.74942 211.443C4.08198 213.775 7.8142 214.242 10.6133 212.842L28.8071 201.646L17.611 185.318Z" fill="#22272E"/>
    <path d="M158.499 225.905L162.697 248.297C163.164 252.029 161.298 255.295 157.566 256.228C154.3 257.161 151.034 255.761 149.635 252.496L140.305 233.369L158.499 225.905Z" fill="#22272E"/>
    <path d="M106.715 245.498C164.686 245.498 211.68 198.504 211.68 140.533C211.68 82.5622 164.686 35.5676 106.715 35.5676C48.7441 35.5676 1.74951 82.5622 1.74951 140.533C1.74951 198.504 48.7441 245.498 106.715 245.498Z" fill="#6DAFA7"/>
    <path d="M106.715 208.177C144.074 208.177 174.359 177.892 174.359 140.533C174.359 103.174 144.074 72.8886 106.715 72.8886C69.3562 72.8886 39.0708 103.174 39.0708 140.533C39.0708 177.892 69.3562 208.177 106.715 208.177Z" fill="#FFE779"/>
    <path d="M125.842 164.792L106.715 140.533L116.512 106.944" stroke="#63737A" stroke-width="1.8" stroke-miterlimit="10" stroke-linecap="round" stroke-linejoin="round"/>
    <path d="M39.5367 38.8332C36.7376 39.7662 33.0055 38.3667 32.539 35.1011C30.2064 21.1057 38.137 7.11033 51.6659 1.9787C65.1948 -3.15294 80.5896 1.97872 88.0538 14.1081C89.9199 16.9071 88.5205 20.6392 85.2549 21.5722L39.5367 38.8332Z" fill="#6DAFA7"/>
    <path d="M218.212 90.616C220.078 93.4151 224.277 93.4151 226.143 91.0825C235.473 80.3527 236.406 64.4913 227.542 52.8284C218.679 41.1656 202.817 37.4335 190.221 43.4982C187.422 44.8977 186.489 48.6299 188.355 51.429L218.212 90.616Z" fill="#6DAFA7"/>
    <path d="M154.3 27.6369L126.775 19.7062C122.11 18.3066 119.778 13.6415 121.177 8.97636C122.577 4.31124 127.242 1.97869 131.907 3.37822L159.431 11.3089C164.096 12.7085 166.429 17.3736 165.029 22.0387C163.63 26.7039 158.965 29.0364 154.3 27.6369Z" fill="#6DAFA7"/>
    <path d="M132.047 16.0996L124.498 42.0831L144.21 47.81L151.759 21.8265L132.047 16.0996Z" fill="#6DAFA7"/>
</svg>