<?xml version="1.0" standalone="yes"?>
<svg xmlns="http://www.w3.org/2000/svg" width="683" height="1070">
<path style="fill:#010101; stroke:none;" d="M0 0L0 159C12.2325 150.746 43.4925 146.413 44 168L45 168C52.2665 159.978 84.2708 158.299 86.7716 172C88.55 181.743 87 193.098 87 203L87 265L87 358C87 373.376 88.599 389.724 86.8912 405C85.1433 420.634 49.4797 418.644 44 407L43 407C37.425 418.847 8.40184 418.933 1 409L0 409L0 1070L683 1070L683 403L682 403C676.663 409.272 660.589 420.429 652.093 415.682C641.441 409.73 633.543 387.403 627.579 377C608.083 342.994 583.5 308.969 568 273L567 273L567 365C567 378.069 570.02 395.4 566.566 408C562.577 422.556 531.004 419.702 524 410L523 410C516.44 421.532 482.345 421.576 480.189 406C475.976 375.57 480 341.747 480 311C480 263.311 477.067 214.585 480.044 167C480.962 152.32 511.862 149.873 520.656 158.394C528.054 165.562 524 187.344 524 197C529.521 193.481 533.409 192.011 540 192C547.119 191.989 557.146 190.149 562.891 195.279C568.449 200.241 567 208.287 567 215L567 262C574.298 257.234 587.55 245.135 596.996 248.743C607.706 252.834 616.086 276.419 621.579 286C641.629 320.974 663.212 355.331 682 391L683 391L683 0L0 0z"/>
<path style="fill:#60d2a8; stroke:none;" d="M6 363L6 364L4 364L4 365C6.90644 365 11.3495 367.163 8 368L8 369L16 371L16 372L14 372L14 373L26 379L26 380L24 380L24 381C26.9064 381 31.3496 383.163 28 384L28 385L36 387L36 388L34 388L34 389L42 395C44.3949 389.293 43 381.154 43 375L43 333L43 212C43 200.677 42.7374 189.319 43.0147 178C43.1511 172.429 45.0953 166.502 43.3472 161.004C39.9207 150.227 11.8826 149.517 4.05864 155.514C-4.48556 162.063 0 187.105 0 197L0 318L0 351C0.000364272 356.665 -0.73005 362.011 6 363M484 363L484 364L482 364L482 365L494 371L494 372L492 372L492 373L504 379L504 380L502 380L502 381L514 387L514 388L512 388L512 389L523 395L523 235C523 212.335 528.376 185.195 523.721 163.004C521.418 152.021 491.338 151.521 484.109 157.434C475.646 164.355 480 187.98 480 198L480 317L480 351C480 355.603 478.91 361.21 484 363z"/>
<path style="fill:#f79353; stroke:none;" d="M43 356L44 356L44 228L45 228C48.1795 234.103 64.2188 247.012 71 248C70.9017 252.105 83.0818 260.445 87 262L87 198C87 189.582 89.3668 176.899 86.2577 169.015C82.537 159.581 49.2715 159.411 44.7685 168.094C42.0418 173.352 43 180.286 43 186L43 223L43 356M523 310L524 310L524 248L525 248L535.28 257.745L567 282L567 225C567 217.357 569.05 206.188 566.258 199.005C562.37 189.001 531.713 188.219 525.564 196.133C519.967 203.339 523 219.361 523 228L523 310z"/>
<path style="fill:#f8515f; stroke:none;" d="M44 228C44 268.626 44.9803 309.388 43.9853 350C43.5622 367.274 38.7269 390.195 43.5725 406.999C46.5825 417.437 74.9855 418.758 82.8912 413.258C91.1843 407.488 87 384.055 87 375C87 337.638 84.4369 299.249 87 262L71 248L44 228M524 248C524 289.72 523 331.278 523 373C523 383.299 518.348 408.772 528.055 415.258C532.17 418.007 538.302 417 543 417C549.115 417 557.753 418.534 562.891 414.486C567.774 410.639 567 404.547 567 399L567 363L567 306C567 299.583 569.168 288.324 566.146 282.554C563.996 278.45 556.797 274.352 553.14 271.438C543.38 263.66 533.712 255.839 524 248z"/>
<path style="fill:#60d2a8; stroke:none;" d="M637 389L637 387L638 387L638 389L639 389L639 387L640 387C644.535 394.871 666.934 383.3 672 391L673 391L673 389L674 389L674 391L675 391L675 389L676 389L681 391C678.728 378.263 667.814 365.152 661.421 354C646.875 328.628 632.125 303.372 617.579 278C611.825 267.964 604.469 245.268 590 248.39C582.526 250.003 567.745 257.643 567.059 266C566.135 277.28 576.081 288.686 581.421 298C593.671 319.367 605.84 340.811 618.397 362C623.743 371.022 628.108 382.945 637 389z"/>
<path style="fill:#f79353; stroke:none;" d="M86 263L87 264L86 263z"/>
<path style="fill:#60d2a8; stroke:none;" d="M160 334L162 336L160 336L160 337L162 337L162 338L160 338L160 339L162 339L162 340L160 340L160 341L162 341L162 342L160 342L160 343L162 343L162 344L160 344L160 345L162 345L162 346L160 346L160 347L162 347L162 348L160 348L160 349L162 349L162 350L160 350L160 351L162 351L162 352L160 352L160 353L162 353L162 354L160 354L160 355L162 355L162 356L160 356L160 357L162 357L162 358L160 358L160 359L162 359L162 360L160 360L160 361L162 361L162 362L160 362L160 363L162 363L162 364L160 364L160 365L162 365L162 366L160 366L160 367C161.96 367.653 162.554 368 160 368L160 369L339 369C334.276 357.247 308.631 373.22 304.573 359.956C303.004 354.831 302.145 341.079 308.109 338.603C317.822 334.571 335.485 338 346 338C376.993 338 407.956 339 439 339L439 332L254 332L194 332.996L160 334z"/>
<path style="fill:#f79353; stroke:none;" d="M202 332L203 333L202 332z"/>
<path style="fill:#abe4b5; stroke:none;" d="M210 332L211 333L210 332M162 368L160 366L162 366L162 365L160 365L160 364L162 364L162 363L160 363L160 362L162 362L162 361L160 361L160 360L162 360L162 359L160 359L160 358L162 358L162 357L160 357L160 356L162 356L162 355L160 355L160 354L162 354L162 353L160 353L160 352L162 352L162 351L160 351L160 350L162 350L162 349L160 349L160 348L162 348L162 347L160 347L160 346L162 346L162 345L160 345L160 344L162 344L162 343L160 343L160 342L162 342L162 341L160 341L160 340L162 340L162 339L160 339L160 338L162 338L162 337L160 337L160 336L162 336L162 335C160.04 334.347 159.446 334 162 334C152.61 330.06 134.044 331.909 127.394 340.043C116.075 353.891 129.722 368.423 143.961 369.661C149.602 370.151 156.516 369.306 162 368M332 346C327.398 340.505 321.701 340.878 315.001 341.005C313.338 341.036 308.336 340.884 308.921 343.83C309.765 348.076 328.42 346 332 346z"/>
<path style="fill:#f8515f; stroke:none;" d="M327 341L327 342C335.509 348.048 333.881 354.114 336.623 363C339.593 372.625 343.029 380.038 345 390L354 388C352.907 383.408 353.534 378.426 351.856 374C350.099 369.368 346.536 365.722 344.865 361C340.657 349.111 342.341 341.002 327 341z"/>
<path style="fill:#abe4b5; stroke:none;" d="M337 341C342.274 347.923 351.117 346 359 346L415 346C418.524 346 437.236 348.071 438.079 343.83C438.954 339.427 417.999 341 415 341L337 341z"/>
<path style="fill:#f79353; stroke:none;" d="M328 342L329 343L328 342z"/>
<path style="fill:#abe4b5; stroke:none;" d="M654 342L655 343L654 342z"/>
<path style="fill:#f79353; stroke:none;" d="M340 345L341 346L340 345z"/>
<path style="fill:#abe4b5; stroke:none;" d="M335 354C334.41 346.421 315.026 344.706 309.623 349.012C304.631 352.99 315.203 353.99 317 353.999L324 354L335 354M342 348L343 354L416 354C419.411 354 437.793 356.033 437.793 351C437.793 345.967 419.411 348 416 348L342 348z"/>
<path style="fill:#f79353; stroke:none;" d="M342 350L343 351L342 350M335.333 351.667L335.667 352.333L335.333 351.667z"/>
<path style="fill:#abe4b5; stroke:none;" d="M336 361L335 356L315.001 356.005L308.921 358.83L315.001 360.995L336 361z"/>
<path style="fill:#f79353; stroke:none;" d="M343.333 356.667L343.667 357.333L343.333 356.667z"/>
<path style="fill:#abe4b5; stroke:none;" d="M344 356L344 361L416 361C418.913 361 438.954 362.575 438.079 358.17C437.245 353.975 419.433 356 416 356L344 356z"/>
<path style="fill:#f79353; stroke:none;" d="M335.333 357.667L335.667 358.333L335.333 357.667z"/>
<path style="fill:#abe4b5; stroke:none;" d="M0 361L0 398C0 402.936 -0.874519 408.922 3.22839 412.566C7.93894 416.751 17.1681 415 23 415C28.2755 415 35.5315 416.283 39.8519 412.566C47.0499 406.374 43.5975 390.399 34 389L34 388L36 388L36 387L28 385L28 384L30 383L24 381L24 380L26 380L26 379L14 373L14 372L16 372L16 371L8 369L8 368L10 367L4 365L4 364L6 364L6 363L0 361M480 361L480 396C480 401.031 478.995 407.497 481.858 411.945C486.713 419.489 514.729 420.269 520.682 413.772C524.918 409.149 522.606 400.728 523 395L512 389L512 388L514 388L514 387L502 381L502 380L504 380L504 379L492 373L492 372L494 372L494 371L482 365L482 364L484 364L484 363L480 361z"/>
<path style="fill:#f79353; stroke:none;" d="M346 365L347 366L346 365z"/>
<path style="fill:#60d2a8; stroke:none;" d="M347 365C350.742 371.786 364.182 369 371 369C394.348 369 417.613 368 441 368L441 365L347 365z"/>
<path style="fill:#f79353; stroke:none;" d="M348 368L349 369L348 368z"/>
<path style="fill:#abe4b5; stroke:none;" d="M395 368L395 369L441 369C429.061 363.99 408.003 368 395 368z"/>
<path style="fill:#f79353; stroke:none;" d="M349 369L352 376L457 377L457 368L349 369z"/>
<path style="fill:#abe4b5; stroke:none;" d="M669 368L670 369L669 368z"/>
<path style="fill:#f79353; stroke:none;" d="M142 369L143 370L142 369z"/>
<path style="fill:#60d2a8; stroke:none;" d="M147 369L148 370L147 369M149 369L150 370L149 369z"/>
<path style="fill:#f8515f; stroke:none;" d="M298 411L297 369L175 369C160.607 369 138.771 365.759 135.329 385C131.211 408.026 151.804 411 169 411L298 411z"/>
<path style="fill:#f79353; stroke:none;" d="M297 369L297 410C312.26 414.511 333.074 411 349 411L459 411L459 404L378 404C366.495 404 351.066 406.7 340.015 403.427C329.918 400.437 330.623 375.495 343 376C338.936 363.424 308.228 369 297 369z"/>
<path style="fill:#abe4b5; stroke:none;" d="M339 375L340 376L339 375M345 385L344 380C335.192 380.487 336.952 387.286 345 385M353 380L353 386L432 386C435.573 386 455.364 388.106 455.364 383.08C455.364 377.859 435.607 380 432 380L353 380z"/>
<path style="fill:#f79353; stroke:none;" d="M344 381L344 384L345 384L344 381z"/>
<path style="fill:#abe4b5; stroke:none;" d="M630 382L631 383L630 382M631 383L632 384L631 383z"/>
<path style="fill:#010101; stroke:none;" d="M348.667 387.333L349.333 387.667L348.667 387.333z"/>
<path style="fill:#abe4b5; stroke:none;" d="M633 387L633 388C639.985 395.467 642.092 410.35 651.185 415.682C659.177 420.368 678.841 410.674 682.258 402.816C684.015 398.775 682.978 393.107 682 389L676 389L675 389L675 391L674 391L674 389L673 389L673 391L672 391L663 389L639 387L639 389L638 389L638 387L637 387L637 389L636 389L633 387M346 390C344.664 389.292 335.293 386.645 337.497 391.455C339.167 395.102 355.418 393 359 393L428 393C434.999 393 442 393.048 448.999 392.999C450.639 392.988 455.594 393.5 455.654 390.83C455.762 386.022 434.459 388 431 388L370 388C363.172 388 351.591 385.764 346 390z"/>
<path style="fill:#f79353; stroke:none;" d="M344 388L345 389L344 388z"/>
<path style="fill:#60d2a8; stroke:none;" d="M634 388L635 389L634 388M636 392L637 393L636 392z"/>
<path style="fill:#abe4b5; stroke:none;" d="M456 396L411 396L380 396L347 396C345.338 396 336.035 395.089 337.461 398.83C339.134 403.214 355.109 401 359 401L427 401C434.014 401 454.554 404.666 456 396z"/>
<path style="fill:#60d2a8; stroke:none;" d="M522 396L523 397L522 396M641 401L642 402L641 401M680 405L681 406L680 405z"/>
<path style="fill:#f79353; stroke:none;" d="M523 409L524 410L523 409z"/>
<path style="fill:#60d2a8; stroke:none;" d="M521 413L522 414L521 413z"/>
</svg>
