<svg width="190" height="279" viewBox="0 0 190 279" fill="none" xmlns="http://www.w3.org/2000/svg">
    <path d="M103.911 45.31C103.911 45.31 104.213 16.6137 96.6614 0C96.6614 0 15.1033 14.8013 0 23.5613C0 23.5613 13.5929 37.1543 17.8218 53.768C22.3528 70.0796 103.307 73.4023 103.911 45.31Z" fill="white"/>
    <path d="M106.328 66.1526C106.328 66.1526 111.463 13.8951 113.88 3.02066C113.88 3.02066 47.727 8.45787 22.9575 22.655L29.603 77.9333L106.328 66.1526Z" fill="#F4C2C9"/>
    <path d="M179.73 106.63C179.73 106.63 179.428 67.965 190 49.539C190 49.539 127.774 50.7472 113.879 58.903C99.9839 67.0589 101.796 106.328 101.796 106.328C101.796 106.328 177.011 110.859 179.73 106.63Z" fill="white"/>
    <path d="M190.001 89.7139H121.432V278.506H190.001V89.7139Z" fill="#6DAFA7"/>
    <path d="M155.867 252.528C163.208 252.528 169.158 246.577 169.158 239.237C169.158 231.897 163.208 225.946 155.867 225.946C148.527 225.946 142.576 231.897 142.576 239.237C142.576 246.577 148.527 252.528 155.867 252.528Z" stroke="#22272E" stroke-width="1.8" stroke-miterlimit="10" stroke-linecap="round" stroke-linejoin="round"/>
    <path d="M52.8615 278.808V45.31L11.7803 55.2783V254.34L52.8615 278.808Z" fill="#6DAFA7"/>
    <path d="M121.431 45.31H52.8618V278.808H121.431V45.31Z" fill="#FFE779"/>
    <path d="M86.9951 252.528C94.3355 252.528 100.286 246.577 100.286 239.237C100.286 231.897 94.3355 225.946 86.9951 225.946C79.6547 225.946 73.7041 231.897 73.7041 239.237C73.7041 246.577 79.6547 252.528 86.9951 252.528Z" stroke="#22272E" stroke-width="1.8" stroke-miterlimit="10" stroke-linecap="round" stroke-linejoin="round"/>
    <path d="M70.3809 188.188H103.91" stroke="#22272E" stroke-width="1.8" stroke-miterlimit="10" stroke-linecap="round" stroke-linejoin="round"/>
    <path d="M70.3809 201.479H103.91" stroke="#22272E" stroke-width="1.8" stroke-miterlimit="10" stroke-linecap="round" stroke-linejoin="round"/>
</svg>